<svg width="14" height="14" viewBox="0 0 14 14" fill="none" xmlns="http://www.w3.org/2000/svg">
<path d="M6.46188 0.0568935L6.45401 0.00964355C4.98138 0.124268 3.54201 0.703518 2.36426 1.74389L7.00001 6.38051L8.56976 4.81076C7.39026 3.44664 6.70688 1.50239 6.46188 0.0568935Z" fill="#0A9F30"/>
<path d="M7.34564 0C7.57927 1.29937 8.17777 2.99512 9.19014 4.19037L11.6358 1.74475C10.4046 0.657125 8.88739 0.07525 7.34564 0Z" fill="#0A9F30"/>
<path d="M12.2561 2.36426L9.81049 4.80989C11.0049 5.82226 12.7006 6.42164 14 6.65439C13.9247 5.11264 13.3437 3.59538 12.2561 2.36426Z" fill="#0A9F30"/>
<path d="M2.03699 2.04051L2.03874 2.03876L2.04049 2.03613L2.03699 2.04051Z" fill="#0A9F30"/>
<path d="M1.74389 2.36426C0.703519 3.54201 0.124269 4.98139 0.00964355 6.45401L0.0568935 6.46189C1.50239 6.70689 3.44664 7.39026 4.81077 8.56977L6.38052 7.00001L1.74389 2.36426Z" fill="#0A9F30"/>
<path d="M0 7.34558C0.07525 8.88733 0.657125 10.4046 1.74475 11.6366L4.19037 9.19096C2.99512 8.17771 1.29937 7.57833 0 7.34558Z" fill="#0A9F30"/>
<path d="M4.80988 9.80957L2.36426 12.2561C3.59538 13.3437 5.11351 13.9247 6.65438 13.9999C6.42076 12.7006 5.82226 11.0048 4.80988 9.80957Z" fill="#0A9F30"/>
<path d="M7.00003 7.62036L5.43115 9.18924C6.60978 10.5534 7.29228 12.4976 7.53815 13.9422L7.54603 13.9895C9.01865 13.8749 10.458 13.2956 11.6358 12.2552L7.00003 7.62036Z" fill="#0A9F30"/>
<path d="M13.9431 7.53815C12.4976 7.29228 10.5534 6.60978 9.18924 5.43115L7.62036 7.00003L12.2561 11.6358C13.2965 10.458 13.8766 9.01865 13.9904 7.54603L13.9431 7.53815Z" fill="#0A9F30"/>
</svg>
