<svg width="14" height="14" viewBox="0 0 14 14" fill="none" xmlns="http://www.w3.org/2000/svg">
<path d="M14 0H0V14H14V0Z" fill="#6DA544"/>
<path d="M7 3.13159L12.25 6.99999L7 10.8684L1.75 6.99999L7 3.13159Z" fill="#FFDA44"/>
<path d="M7.00002 9.21049C8.22083 9.21049 9.21049 8.22083 9.21049 7.00002C9.21049 5.77921 8.22083 4.78955 7.00002 4.78955C5.77921 4.78955 4.78955 5.77921 4.78955 7.00002C4.78955 8.22083 5.77921 9.21049 7.00002 9.21049Z" fill="#F0F0F0"/>
<path d="M5.89477 6.86182C5.51037 6.86182 5.1394 6.92028 4.79022 7.02875C4.80567 8.23628 5.78884 9.21051 7.00003 9.21051C7.74898 9.21051 8.41043 8.8377 8.81027 8.26794C8.12619 7.41154 7.07353 6.86182 5.89477 6.86182Z" fill="#0052B4"/>
<path d="M9.16956 7.42348C9.19619 7.28638 9.21055 7.14487 9.21055 6.99998C9.21055 5.77914 8.22087 4.78943 6.99999 4.78943C6.08907 4.78943 5.30706 5.34057 4.96863 6.1275C5.26777 6.06553 5.57752 6.03289 5.89473 6.03289C7.17871 6.03289 8.34017 6.56655 9.16956 7.42348Z" fill="#0052B4"/>
</svg>
