<svg width="14" height="14" viewBox="0 0 14 14" fill="none" xmlns="http://www.w3.org/2000/svg">
<path d="M14 0H0V14H14V0Z" fill="white"/>
<path d="M9.58238 6.99996C9.58238 7.64557 8.42615 9.25962 6.9999 9.25962C5.57365 9.25962 4.41742 7.64557 4.41742 6.99996C4.41742 5.57368 5.57365 4.41748 6.9999 4.41748C8.42615 4.41748 9.58238 5.57368 9.58238 6.99996Z" fill="#D80027"/>
<path d="M9.58238 7C9.58238 8.42628 8.42615 9.58248 6.9999 9.58248C5.57365 9.58248 4.41742 8.42628 4.41742 7" fill="#0052B4"/>
<path d="M10.4242 8.59818L9.73944 9.28296L10.1959 9.73939L10.8807 9.05462L10.4242 8.59818Z" fill="black"/>
<path d="M9.28291 9.73931L8.59814 10.4241L9.05458 10.8805L9.73934 10.1957L9.28291 9.73931Z" fill="black"/>
<path d="M11.7937 9.96707L11.1089 10.6519L11.5654 11.1083L12.2502 10.4235L11.7937 9.96707Z" fill="black"/>
<path d="M10.6524 11.1089L9.96765 11.7937L10.4241 12.2501L11.1088 11.5654L10.6524 11.1089Z" fill="black"/>
<path d="M11.109 9.28265L10.4242 9.96741L10.8806 10.4238L11.5654 9.73908L11.109 9.28265Z" fill="black"/>
<path d="M9.96772 10.4241L9.28296 11.1089L9.73939 11.5653L10.4242 10.8806L9.96772 10.4241Z" fill="black"/>
<path d="M9.28277 2.89105L11.1088 4.71704L11.5652 4.26061L9.73921 2.43461L9.28277 2.89105Z" fill="black"/>
<path d="M8.5983 3.57572L9.28308 4.2605L9.73952 3.80406L9.05474 3.11928L8.5983 3.57572Z" fill="black"/>
<path d="M9.73943 4.7171L10.4242 5.40186L10.8806 4.94542L10.1959 4.26066L9.73943 4.7171Z" fill="black"/>
<path d="M9.9672 2.20646L10.652 2.89124L11.1084 2.4348L10.4236 1.75002L9.9672 2.20646Z" fill="black"/>
<path d="M11.1089 3.34759L11.7937 4.03235L12.2501 3.57591L11.5654 2.89115L11.1089 3.34759Z" fill="black"/>
<path d="M4.03254 11.7936L2.20654 9.96765L1.75011 10.4241L3.5761 12.2501L4.03254 11.7936Z" fill="black"/>
<path d="M4.71694 11.1086L4.03217 10.4238L3.57573 10.8803L4.26051 11.565L4.71694 11.1086Z" fill="black"/>
<path d="M3.57591 9.96751L2.89111 9.28271L2.43468 9.73915L3.11948 10.4239L3.57591 9.96751Z" fill="black"/>
<path d="M5.40217 10.4241L3.57617 8.59814L3.11974 9.05458L4.94573 10.8806L5.40217 10.4241Z" fill="black"/>
<path d="M2.20641 4.03242L4.03241 2.20642L3.57597 1.74998L1.74998 3.57598L2.20641 4.03242Z" fill="black"/>
<path d="M2.89099 4.71735L4.71698 2.89136L4.26054 2.43492L2.43455 4.26092L2.89099 4.71735Z" fill="black"/>
<path d="M3.5758 5.40217L5.40179 3.57617L4.94536 3.11974L3.11936 4.94573L3.5758 5.40217Z" fill="black"/>
</svg>
