<svg width="14" height="14" viewBox="0 0 14 14" fill="none" xmlns="http://www.w3.org/2000/svg">
<path fill-rule="evenodd" clip-rule="evenodd" d="M2.41875 1.70715C3.30871 0.936153 4.3951 0.38587 5.5928 0.141434C5.37176 0.634014 5.34284 1.27901 5.40458 1.96971C5.52365 3.30179 6.0061 5.0306 6.50773 6.74385C6.05663 6.87655 5.6102 7.00742 5.17443 7.13102C4.82541 7.18876 4.43577 7.09475 4.0318 6.85163C3.54005 6.55569 3.06349 6.05709 2.69586 5.44557C1.98376 4.26103 1.75279 2.79406 2.41875 1.70715ZM1.27814 2.96652C0.472993 4.10663 0 5.49805 0 6.99994C0 7.13899 0.00405434 7.2771 0.0120513 7.41414C0.0303218 7.49073 0.0579618 7.55017 0.0898768 7.59728C0.147264 7.68199 0.238739 7.75679 0.385809 7.81518C0.69778 7.93903 1.19482 7.96365 1.87323 7.88221C2.41549 7.81712 3.03318 7.69024 3.69921 7.52614C3.68108 7.51569 3.66304 7.50505 3.64508 7.49424C3.02768 7.12269 2.47014 6.52576 2.05307 5.83199C1.55214 4.99873 1.22505 3.96969 1.27814 2.96652ZM0.168782 8.53475C0.426181 9.68539 0.966862 10.7291 1.71379 11.5888C2.79812 12.236 4.25171 12.0032 5.42718 11.2965C6.0387 10.9289 6.5373 10.4523 6.83324 9.96059C7.07635 9.55663 7.17037 9.16698 7.11263 8.81797C6.98709 8.37537 6.85405 7.92177 6.71922 7.46345C6.36511 7.56766 6.0104 7.67182 5.65876 7.77287L5.65923 7.77412C5.55383 7.81365 5.44771 7.84316 5.34132 7.86344C4.10974 8.21202 2.92998 8.51075 1.96262 8.62687C1.28654 8.70802 0.655685 8.70864 0.168782 8.53475ZM7.4388 7.25193C7.54511 7.61309 7.65141 7.97496 7.75448 8.33363L7.75573 8.33316C7.79526 8.43856 7.82477 8.54469 7.84505 8.65108C8.19363 9.88266 8.49236 11.0624 8.60848 12.0298C8.69034 12.7117 8.69026 13.3477 8.51179 13.8363C9.62658 13.5909 10.6417 13.0797 11.4874 12.3726C12.2068 11.2794 11.9814 9.775 11.2541 8.5652C10.8865 7.95368 10.4099 7.45508 9.91816 7.15914C9.42642 6.86321 8.95591 6.7882 8.55407 6.93889L8.55139 6.93175C8.18604 7.03432 7.81402 7.14208 7.4388 7.25193ZM12.6679 11.1087C13.4972 9.96664 13.9898 8.56414 13.9998 7.04705H13.9852C13.9852 6.82784 13.9392 6.67653 13.874 6.56909C13.8096 6.46305 13.7116 6.37497 13.5654 6.3054C13.256 6.15816 12.7639 6.10971 12.0894 6.17C11.5462 6.21855 10.926 6.33288 10.2568 6.4881C10.2729 6.49744 10.2889 6.50691 10.3049 6.51653C10.9223 6.88808 11.4798 7.48501 11.8969 8.17878C12.4086 9.02991 12.7389 10.0853 12.6679 11.1087ZM13.8634 5.61682C13.6308 4.4562 13.1111 3.39931 12.3817 2.52332C11.2863 1.78184 9.76676 2.0049 8.54681 2.7383C7.93529 3.10592 7.43669 3.58248 7.14074 4.07424C6.84481 4.56597 6.76981 5.03648 6.9205 5.43832L6.91336 5.441C7.01399 5.79945 7.11962 6.16432 7.22732 6.53234C8.9475 6.02849 10.6851 5.54253 12.0227 5.42297C12.7192 5.36072 13.3692 5.39064 13.8634 5.61682ZM7 13.9999C5.49369 13.9999 4.09851 13.5242 2.95653 12.7147C3.95704 12.7655 4.98266 12.4389 5.8136 11.9393C6.50737 11.5223 7.1043 10.9647 7.47585 10.3473C7.48666 10.3294 7.49729 10.3113 7.50775 10.2932C7.67185 10.9592 7.79873 11.5769 7.86382 12.1192C7.94526 12.7976 7.92064 13.2946 7.79678 13.6066C7.7384 13.7537 7.6636 13.8451 7.57889 13.9025C7.52024 13.9422 7.44249 13.9754 7.33631 13.992C7.22487 13.9973 7.11275 13.9999 7 13.9999ZM8.16039 2.09551C9.01398 1.58235 10.073 1.25162 11.0992 1.32515C9.95425 0.496603 8.5486 0.00609306 7.02866 0V0.00720574C6.80945 0.00720574 6.65814 0.0532018 6.5507 0.118401C6.44466 0.182752 6.35658 0.280763 6.287 0.426969C6.13977 0.73639 6.09132 1.22847 6.1516 1.90294C6.20016 2.4462 6.31449 3.06635 6.46971 3.73563C6.47905 3.71953 6.48852 3.70349 6.49814 3.68751C6.86969 3.07011 7.46662 2.51257 8.16039 2.09551Z" fill="#0A9F30"/>
</svg>
