<svg width="14" height="14" viewBox="0 0 14 14" fill="none" xmlns="http://www.w3.org/2000/svg">
<path d="M1.4 11.2C0.626267 11.2 0 11.8272 0 12.6C0 13.3728 0.626267 14 1.4 14H2.8V11.2H1.4Z" fill="#0A9F30"/>
<path d="M13.0666 0C12.7577 0 12.4833 0.150267 12.3134 0.381733L7.83718 6.48853L8.12558 6.0956L9.98292 7.53667L9.48078 8.32813L7.57398 6.8488L6.75452 7.966L8.79945 9.4024L13.8553 1.43267C13.9468 1.288 14 1.1172 14 0.933333C14 0.418133 13.5819 0 13.0666 0Z" fill="#0A9F30"/>
<path d="M6.20294 8.71924L4.52387 11.0096C4.43614 11.1291 4.29614 11.2 4.14774 11.2H3.73334V14H5.1128C5.59254 14 6.03774 13.7546 6.29534 13.3504L8.2992 10.1911L6.20294 8.71924Z" fill="#0A9F30"/>
<path d="M4.2 6.53333H0.466667C0.209067 6.53333 0 6.74239 0 6.99999V7.93333C0 8.19093 0.209067 8.39999 0.466667 8.39999H4.2C4.4576 8.39999 4.66667 8.19093 4.66667 7.93333V6.99999C4.66667 6.74239 4.4576 6.53333 4.2 6.53333Z" fill="#0A9F30"/>
</svg>
