<svg width="14" height="14" viewBox="0 0 14 14" fill="none" xmlns="http://www.w3.org/2000/svg">
<g clip-path="url(#clip0)">
<path d="M5.66972 8.60211C5.63257 8.36891 5.63999 7.11291 5.68238 6.4605C5.7121 6.00297 5.75788 5.55208 5.81416 5.16261C5.8287 5.06196 5.83694 4.97572 5.83247 4.97097C5.82801 4.96621 5.79539 4.97979 5.75998 5.00114C5.6194 5.08591 5.5381 5.0908 5.19192 5.03528C4.22736 4.88059 3.54206 4.85813 2.991 4.96316C2.924 4.97593 2.772 5.01075 2.65322 5.04053C2.30785 5.12715 2.25905 5.13405 1.98874 5.13449C1.7633 5.13486 1.74769 5.13353 1.69527 5.10938C1.54987 5.04242 1.47173 4.90036 1.44512 4.65461C1.39812 4.22045 1.57371 3.54907 1.82659 3.196C1.89778 3.0966 2.04605 2.95701 2.15795 2.88406C2.51325 2.65239 2.96492 2.55233 3.63197 2.55751C4.24833 2.62597 5.8382 2.75089 6.1237 3.25973C6.14028 3.29645 6.15735 3.32092 6.1624 3.31518C6.16737 3.30954 6.20014 3.19013 6.23523 3.04984C6.31791 2.71923 6.4171 2.35998 6.54759 1.91859C6.69533 1.41882 6.73454 1.30418 6.80807 1.15703C7.06663 0.639574 7.54334 0.376588 8.28469 0.342434C8.85963 0.315946 9.20904 0.514225 9.29347 0.914882C9.31385 1.01157 9.31607 1.2509 9.29766 1.3664C9.25689 1.62222 9.20725 1.76609 8.95814 2.35038C8.72008 2.90828 8.49195 3.46987 8.27691 4.03691C7.71053 5.53046 7.34688 6.87647 7.14992 8.20837C7.12166 8.39949 7.09452 8.50053 7.04394 8.60303C6.77021 9.16161 5.77624 9.22292 5.66972 8.60211V8.60211ZM12.2716 6.91103C12.235 6.89731 12.1578 6.85837 12.0999 6.82449C11.8526 6.67966 11.4404 6.46522 11.1918 6.35201C10.5391 6.05479 10.0833 5.93228 9.55274 5.91143C9.16901 5.89635 8.99097 5.8709 8.80214 5.80416C8.56379 5.71991 8.45919 5.64404 8.41096 5.52041C8.37381 5.42518 8.36922 5.23922 8.40027 5.08764C8.49386 4.63085 8.90383 4.00854 9.26715 3.77176C9.48611 3.62906 9.69332 3.56839 9.9978 3.55784C10.4809 3.5411 10.8524 3.64 11.8175 4.04235C12.3143 4.24943 12.5005 4.34836 12.7322 4.52819C12.8641 4.63058 12.9349 4.68009 13.1538 4.82287C13.2066 4.85729 13.2716 4.90981 13.2983 4.93958C13.5042 5.16889 13.5157 5.52447 13.333 6.01539C13.162 6.47511 12.8911 6.81163 12.6129 6.90996C12.5098 6.94641 12.367 6.94685 12.2716 6.91103Z" fill="#61AFD8"/>
<path d="M6.00948 13.2459C5.58835 13.2331 5.18931 13.1743 4.74098 13.059C2.93142 12.5935 1.45159 11.4253 0.687821 9.85946C0.510026 9.49494 0.449443 9.3304 0.426962 9.15094C0.357414 8.59579 0.759701 7.86728 1.2861 7.59511C1.39601 7.53828 1.59746 7.4579 1.72868 7.41851C1.89228 7.37418 2.07691 7.36669 2.1804 7.47937C2.26365 7.57165 2.30454 7.68299 2.36481 7.98153C2.42018 8.25583 2.48441 8.46728 2.58126 8.6941C2.86293 9.35372 3.37168 9.96761 3.99898 10.4048C4.57252 10.8046 5.23434 11.0779 5.87187 11.1782C6.22247 11.2334 6.51953 11.2416 6.91421 11.2071C7.7255 11.136 8.21042 11.0489 8.62264 10.9004C8.99802 10.7652 9.49588 10.45 10.1509 9.93281C10.2149 9.88231 10.3445 9.78309 10.4389 9.71232C10.7515 9.47797 10.881 9.36792 11.0871 9.16125C11.307 8.94075 11.4751 8.80611 11.6132 8.73983C11.928 8.6184 12.0225 8.98267 11.9684 9.19229C11.9283 9.33841 11.893 9.39995 11.6748 9.70383C10.5671 11.2465 9.55022 12.2328 8.55292 12.7318C8.03228 12.9923 7.56975 13.1298 6.95037 13.2082C6.66403 13.2445 6.3609 13.2566 6.00948 13.2459Z" fill="#E23033"/>
</g>
<defs>
<clipPath id="clip0">
<rect width="14" height="14" fill="white"/>
</clipPath>
</defs>
</svg>
