<svg width="14" height="14" viewBox="0 0 14 14" fill="none" xmlns="http://www.w3.org/2000/svg">
<path d="M7.36967 7.2629C7.13518 10.5299 5.36691 12.454 4.14637 13.3989C4.72295 13.657 5.34067 13.8364 5.98725 13.9309L6.25236 13.7156C7.85701 12.4146 9.79851 10.1003 10.2474 6.45445C9.35404 6.5192 8.38723 6.76243 7.36967 7.2629Z" fill="#0A9F30"/>
<path d="M13.7279 5.06417L13.3735 4.84631C12.1075 4.06586 8.79232 2.49621 4.75708 4.1761C5.26717 4.9828 5.98987 5.77025 7.00918 6.45795C9.93324 5.03092 12.5126 5.60313 13.9545 6.1806C13.909 5.79825 13.832 5.42552 13.7279 5.06417Z" fill="#0A9F30"/>
<path d="M7.00306 0.000854492C5.77376 0.000854492 4.61884 0.32021 3.6144 0.877551L3.6179 0.909049C3.69927 1.64838 3.90926 2.5207 4.3301 3.40702C8.21398 1.74987 11.4976 2.85755 13.1959 3.74037C12.0226 1.51714 9.69089 0.000854492 7.00306 0.000854492Z" fill="#0A9F30"/>
<path d="M2.80857 1.40602C2.23986 1.833 1.73851 2.34222 1.32291 2.91968L1.36054 3.16379C1.67902 5.21729 2.6782 8.10024 5.5699 10.411C6.04762 9.55003 6.41072 8.48259 6.50084 7.17017C3.97137 5.4544 3.08068 3.17429 2.80857 1.40602Z" fill="#0A9F30"/>
<path d="M0.64396 4.08423C0.234485 4.97492 0 5.96273 0 7.00654C0 9.51326 1.32029 11.7059 3.29854 12.9439L3.38254 12.8836C3.87776 12.5292 4.52172 11.9561 5.10093 11.1547C2.28798 8.94017 1.11381 6.22522 0.64396 4.08423Z" fill="#0A9F30"/>
<path d="M13.8819 7.10018C13.1469 6.7747 12.2072 6.49471 11.1311 6.44134C10.7155 10.1074 8.90432 12.5275 7.25592 13.9991C10.9569 13.867 13.923 10.8686 14 7.1518L13.8819 7.10018Z" fill="#0A9F30"/>
</svg>
