<svg width="14" height="14" viewBox="0 0 14 14" fill="none" xmlns="http://www.w3.org/2000/svg">
<path d="M5.48651 6.53774C5.64356 3.8434 4.59219 1.0566 4.04688 0C5.22476 1.65094 5.94458 3.69811 6.07545 6.53774C6.20633 9.37736 5.15932 11.6887 4.96301 13.4057C5.2902 13.5377 7.12246 13.6038 7.84228 13.6038V14H6.46808C5.52432 14 4.59219 13.912 4.30863 13.8679C4.59219 12.5692 5.32946 9.23208 5.48651 6.53774Z" fill="#E5004C"/>
<path d="M7.1879 7.72642C7.6067 6.40566 10.4598 4.49057 11.7031 3.76415C10.5907 4.90881 8.16947 7 7.77684 7.99057C7.44965 8.81604 7.49328 11.4245 7.64597 12.8113C7.31878 11.6667 6.7691 9.04717 7.1879 7.72642Z" fill="#E5004C"/>
<path d="M6.40264 1.45283C6.40264 0.977359 6.90434 0.77044 7.12246 0.726415C6.40264 0.726415 6.14089 1.0566 6.14089 1.45283C6.14089 2.64151 7.53371 2.11321 8.10403 2.11321C8.62754 2.11321 9.02017 2.70755 9.02017 3.30189C9.02017 4.0283 8.75841 4.42453 7.90772 4.42453C7.33186 4.42453 6.88252 4.07233 6.72983 3.89623C6.96977 4.2044 7.59362 4.82076 8.16947 4.82076C8.88929 4.82076 9.67455 4.29245 9.67455 3.30189C9.67455 2.31132 8.69298 1.84906 8.10403 1.84906C7.64132 1.84906 7.44965 1.98113 7.25334 1.98113C7.05702 1.98113 6.40264 2.04717 6.40264 1.45283Z" fill="#E5004C"/>
</svg>
