<svg width="16" height="16" viewBox="0 0 16 16" fill="none" xmlns="http://www.w3.org/2000/svg">
<path d="M8 0C3.56364 0 0 3.56364 0 8C0 12.4364 3.56364 16 8 16C12.4364 16 16 12.4364 16 8C16 3.56364 12.4364 0 8 0ZM6.10909 8.87273L5.6 9.38182C5.45455 9.52727 5.23636 9.52727 5.09091 9.38182L4.18182 8.47273C3.6 7.89091 3.27273 7.12727 3.27273 6.29091C3.27273 4.61818 4.65455 3.23636 6.32727 3.23636C7.12727 3.23636 7.92727 3.56364 8.50909 4.14545L9.41818 5.05455C9.56364 5.2 9.56364 5.41818 9.41818 5.56364L8.90909 6.07273C8.76364 6.21818 8.54545 6.21818 8.4 6.07273L7.49091 5.16364C7.2 4.87273 6.8 4.69091 6.36364 4.69091C5.49091 4.69091 4.76364 5.41818 4.76364 6.29091C4.76364 6.72727 4.94545 7.12727 5.23636 7.41818L6.14545 8.32727C6.21818 8.50909 6.21818 8.72727 6.10909 8.87273ZM6.29091 6.8L6.8 6.29091C6.94546 6.14545 7.16364 6.14545 7.30909 6.29091L9.70909 8.69091C9.85455 8.83636 9.85455 9.05455 9.70909 9.2L9.2 9.70909C9.05455 9.85455 8.83636 9.85455 8.69091 9.70909L6.29091 7.30909C6.14545 7.16364 6.14545 6.94546 6.29091 6.8ZM9.67273 12.7273C8.87273 12.7273 8.07273 12.4 7.49091 11.8182L6.58182 10.9091C6.43636 10.7636 6.43636 10.5455 6.58182 10.4L7.09091 9.89091C7.23636 9.74545 7.45455 9.74545 7.6 9.89091L8.50909 10.8C8.8 11.0909 9.2 11.2727 9.63636 11.2727C10.5091 11.2727 11.2364 10.5455 11.2364 9.67273C11.2364 9.23636 11.0545 8.83636 10.7636 8.54545L9.85455 7.63636C9.70909 7.49091 9.70909 7.27273 9.85455 7.12727L10.3636 6.61818C10.5091 6.47273 10.7273 6.47273 10.8727 6.61818L11.7818 7.52727C12.3636 8.10909 12.6909 8.87273 12.6909 9.70909C12.7273 11.3455 11.3455 12.7273 9.67273 12.7273Z" fill="#9CD3A8"/>
</svg>
