<svg width="16" height="12" viewBox="0 0 16 12" fill="none" xmlns="http://www.w3.org/2000/svg">
<rect x="0.993866" y="0.171143" width="14.5073" height="11.6577" rx="5.82883" fill="white"/>
<path fill-rule="evenodd" clip-rule="evenodd" d="M12.1858 0.81879H4.30925C2.84442 0.81879 1.65694 1.97864 1.65694 3.40938V8.59056C1.65694 10.0213 2.84442 11.1812 4.30925 11.1812H12.1858C13.6506 11.1812 14.8381 10.0213 14.8381 8.59056V3.40938C14.8381 1.97864 13.6506 0.81879 12.1858 0.81879ZM4.30925 0.171143C2.47821 0.171143 0.993866 1.62095 0.993866 3.40938V8.59056C0.993866 10.379 2.47822 11.8288 4.30925 11.8288H12.1858C14.0168 11.8288 15.5012 10.379 15.5012 8.59056V3.40938C15.5012 1.62095 14.0168 0.171143 12.1858 0.171143H4.30925Z" fill="#EE7D14"/>
<path fill-rule="evenodd" clip-rule="evenodd" d="M6.89154 1.46643H5.31268C3.65583 1.46643 2.31268 2.80958 2.31268 4.46643V7.5335C2.31268 8.13871 2.4919 8.70207 2.80015 9.17339C3.68193 5.56654 5.41445 3.07004 6.89154 1.46643ZM3.92301 10.1929C4.33846 10.4105 4.8112 10.5335 5.31268 10.5335H11.1823C11.806 10.5335 12.3853 10.3432 12.8652 10.0174C12.6548 9.02529 12.3757 8.11957 12.0519 7.29527H4.77261C4.42975 8.16793 4.13703 9.13184 3.92301 10.1929ZM13.9193 8.76372C13.0102 5.37656 11.3534 3.00861 9.93292 1.46643H11.1823C12.8392 1.46643 14.1823 2.80958 14.1823 4.46643V7.5335C14.1823 7.97189 14.0883 8.38832 13.9193 8.76372ZM5.3477 5.99997H11.4768C10.5269 4.09089 9.36529 2.71142 8.41223 1.7743C7.45917 2.71142 6.2976 4.09089 5.3477 5.99997Z" fill="#EE7D14"/>
</svg>
