<svg width="53" height="12" viewBox="0 0 53 12" fill="none" xmlns="http://www.w3.org/2000/svg">
<g clip-path="url(#clip0)">
<path d="M19.0348 4.26567H17.7966C17.2445 4.26567 17.0517 3.96111 17.0517 3.67294C17.0517 3.38492 17.2445 3.08799 17.7966 3.08799H19.0348V4.26567ZM9.68108 4.05098V3.08799H10.9527C11.2445 3.08799 11.5793 3.17743 11.5793 3.55489C11.5793 3.93422 11.2445 4.05098 10.9527 4.05098H9.68108ZM9.68108 5.9127V4.89607H11.0026C11.4546 4.89607 11.7137 5.03167 11.7137 5.40898C11.7137 5.78602 11.4546 5.9127 11.0026 5.9127H9.68108ZM23.1677 4.98623H24.8585C25.3771 4.98623 25.5276 5.16539 25.5276 5.39087C25.5276 5.75194 25.1599 5.91284 24.5395 5.91284C23.8291 5.91284 22.8757 5.71469 22.1884 5.51741L21.9885 6.76713C22.7745 7.01892 23.7118 7.27156 25.0168 7.27156C26.6909 7.27156 28.4478 6.84003 28.4478 5.66925C28.4478 4.87033 27.6197 4.51817 26.9083 4.46468V4.42902C27.4773 4.31125 28.0538 3.88878 28.0538 3.25881C28.0538 2.18869 26.6565 1.78261 25.1922 1.78261C24.1298 1.78261 22.9745 2.02649 22.1972 2.25095L22.3568 3.45653C23.0506 3.26816 23.9285 3.07921 24.5826 3.07921C25.1597 3.07921 25.4602 3.19612 25.4602 3.53605C25.4602 3.75433 25.3436 3.93408 24.8833 3.93408H23.1677V4.98623ZM40.3535 5.92118C39.752 5.92118 38.914 5.57075 38.914 4.54549C38.914 3.45668 39.7425 3.14234 40.3535 3.14234C40.9648 3.14234 41.7914 3.45653 41.7914 4.54549C41.7914 5.57075 40.9557 5.92118 40.3535 5.92118ZM6.58394 3.73564V2.25095C5.90747 1.94596 5.12843 1.755 4.2086 1.755C2.418 1.755 0.48539 2.48577 0.48539 4.55427C0.48539 6.55086 2.41051 7.30722 4.24203 7.30722C5.11172 7.30722 5.95734 7.13712 6.58407 6.84938V5.36383C6.0579 5.59692 5.53881 5.72332 4.98629 5.72332C4.20071 5.72332 3.3381 5.44493 3.3381 4.55427C3.3381 3.69135 4.08344 3.35818 4.88614 3.35818C5.40483 3.35803 6.03276 3.51046 6.58394 3.73564ZM28.7904 7.03732H31.4429V5.1654H33.2499V7.03746H35.9109V2.02663H33.2499V3.76325H31.4429V2.02663H28.7904V7.03732ZM47.1223 7.03732L49.8833 4.52738V7.03732H52.4854V2.02663H50.1756L47.4141 4.53672V2.02663H44.813V7.03746H47.1223V7.03732ZM17.1193 7.03732L18.0721 5.35592H19.035V7.03732H21.5869V2.02663C20.4998 1.90053 18.9513 1.85523 18.4661 1.85523C16.407 1.85523 14.4667 1.99946 14.4667 3.69149C14.4667 4.41924 15.0606 4.85135 15.7299 5.03181L14.3419 7.03746H17.1193V7.03732ZM7.12897 7.03732C8.36665 7.15423 9.41258 7.21663 10.5587 7.21663C12.2323 7.21663 14.4002 7.11871 14.4002 5.71455C14.4002 4.89607 13.5459 4.46468 12.8099 4.46468V4.40975C13.5127 4.32045 14.0822 3.80754 14.0822 3.2046C14.0822 1.95416 12.2323 1.85509 10.4923 1.85509C9.33716 1.85509 8.40864 1.90053 7.12897 2.02649V7.03732ZM40.3535 1.755C38.5286 1.755 36.1785 2.45859 36.1785 4.55427C36.1785 6.60536 38.5551 7.30737 40.3535 7.30737C42.1532 7.30737 44.5285 6.60536 44.5285 4.55427C44.5283 2.45859 42.1782 1.755 40.3535 1.755Z" fill="#484848"/>
<path d="M49.8157 1.75387L47.9075 0V3.50875L49.8157 1.75387Z" fill="#FAAC3D"/>
<path d="M0.508705 9.40173H10.9074V12H0.508705V9.40173Z" fill="#5DB5E5"/>
<path d="M10.9062 9.40173H21.3049V12H10.9062V9.40173Z" fill="#FAAC3D"/>
<path d="M21.305 9.40173H31.7038V12H21.305V9.40173Z" fill="#91C74B"/>
<path d="M31.7037 9.40173H42.1025V12H31.7037V9.40173Z" fill="#FCE535"/>
<path d="M42.1023 9.40173H52.5012V12H42.1023V9.40173Z" fill="#9061A9"/>
</g>
<defs>
<clipPath id="clip0">
<rect width="52" height="12" fill="white" transform="translate(0.50119)"/>
</clipPath>
</defs>
</svg>
