<svg width="15" height="16" viewBox="0 0 15 16" fill="none" xmlns="http://www.w3.org/2000/svg">
<g clip-path="url(#clip0)">
<path d="M14.6726 11.2652C14.6333 11.1995 14.3906 10.672 13.2224 9.58775C11.9995 8.45245 12.1638 8.6368 13.6368 6.67373C14.5339 5.47819 14.8925 4.74809 14.7803 4.43597C14.6735 4.13846 14.0137 4.21694 14.0137 4.21694L11.8197 4.22972C11.8197 4.22972 11.6573 4.20781 11.5359 4.27991C11.4182 4.3511 11.3424 4.51537 11.3424 4.51537C11.3424 4.51537 10.9947 5.44077 10.5311 6.22746C9.55367 7.88753 9.16215 7.97514 9.00244 7.87201C8.631 7.63199 8.72409 6.90645 8.72409 6.39173C8.72409 4.78277 8.96776 4.11199 8.24861 3.93859C8.0095 3.88109 7.83428 3.84276 7.22373 3.83638C6.4407 3.82816 5.77722 3.83911 5.40213 4.02255C5.15207 4.14484 4.95951 4.41772 5.07723 4.43323C5.22234 4.4524 5.55089 4.52176 5.7252 4.75904C5.95062 5.06477 5.9424 5.75289 5.9424 5.75289C5.9424 5.75289 6.072 7.6466 5.64032 7.88205C5.34372 8.04359 4.9376 7.71413 4.06604 6.20738C3.61977 5.43621 3.2821 4.5829 3.2821 4.5829C3.2821 4.5829 3.2173 4.42411 3.1014 4.33923C2.96085 4.23611 2.76373 4.20325 2.76373 4.20325L0.677464 4.21603C0.677464 4.21603 0.364433 4.22515 0.249443 4.36114C0.147228 4.48252 0.241229 4.73258 0.241229 4.73258C0.241229 4.73258 1.87483 8.55375 3.72381 10.4803C5.42038 12.2462 7.34602 12.1303 7.34602 12.1303H8.21849C8.21849 12.1303 8.48224 12.1011 8.6164 11.956C8.74051 11.8228 8.73595 11.5727 8.73595 11.5727C8.73595 11.5727 8.71861 10.4018 9.26254 10.2293C9.79825 10.0596 10.4864 11.361 11.2156 11.862C11.7668 12.2408 12.1857 12.1577 12.1857 12.1577L14.136 12.1303C14.136 12.1303 15.1563 12.0674 14.6726 11.2652Z" fill="#A3A3A3"/>
</g>
<defs>
<clipPath id="clip0">
<rect width="14.601" height="14.601" fill="white" transform="translate(0.201904 0.699463)"/>
</clipPath>
</defs>
</svg>
