<svg width="16" height="16" viewBox="0 0 16 16" fill="none" xmlns="http://www.w3.org/2000/svg">
<g clip-path="url(#clip0)">
<path d="M15.1936 3.47279C14.6506 3.71097 14.0721 3.86884 13.4689 3.94549C14.0894 3.575 14.563 2.99278 14.7857 2.29102C14.2071 2.63597 13.5683 2.87963 12.8876 3.0156C12.3382 2.43065 11.5552 2.06836 10.7011 2.06836C9.04387 2.06836 7.7097 3.41347 7.7097 5.06247C7.7097 5.29973 7.72978 5.52787 7.77906 5.74506C5.29051 5.62369 3.0885 4.43098 1.60924 2.61407C1.35099 3.06214 1.1995 3.575 1.1995 4.12709C1.1995 5.16376 1.73335 6.08271 2.5291 6.61473C2.04818 6.60561 1.57639 6.46599 1.17669 6.24606C1.17669 6.25518 1.17669 6.26705 1.17669 6.27891C1.17669 7.73353 2.21427 8.94176 3.5749 9.22009C3.33124 9.28671 3.06569 9.31865 2.7901 9.31865C2.59846 9.31865 2.40499 9.3077 2.2234 9.26754C2.61123 10.453 3.71178 11.3245 5.02039 11.3527C4.00197 12.1494 2.70888 12.6294 1.30901 12.6294C1.06353 12.6294 0.828092 12.6185 0.592651 12.5883C1.9186 13.4434 3.49003 13.9316 5.18465 13.9316C10.6929 13.9316 13.7043 9.36884 13.7043 5.4138C13.7043 5.28148 13.6997 5.15372 13.6934 5.02688C14.2874 4.60528 14.7866 4.07873 15.1936 3.47279Z" fill="#A3A3A3"/>
</g>
<defs>
<clipPath id="clip0">
<rect width="14.601" height="14.601" fill="white" transform="translate(0.592651 0.699463)"/>
</clipPath>
</defs>
</svg>
