<svg width="16" height="16" viewBox="0 0 16 16" fill="none" xmlns="http://www.w3.org/2000/svg">
<g clip-path="url(#clip0)">
<path d="M10.8327 0.699463H5.35735C2.83778 0.699463 0.794556 2.74268 0.794556 5.26226V10.7376C0.794556 13.2572 2.83778 15.3004 5.35735 15.3004H10.8327C13.3523 15.3004 15.3955 13.2572 15.3955 10.7376V5.26226C15.3955 2.74268 13.3523 0.699463 10.8327 0.699463ZM14.0267 10.7376C14.0267 12.4989 12.594 13.9316 10.8327 13.9316H5.35735C3.59611 13.9316 2.1634 12.4989 2.1634 10.7376V5.26226C2.1634 3.50102 3.59611 2.0683 5.35735 2.0683H10.8327C12.594 2.0683 14.0267 3.50102 14.0267 5.26226V10.7376Z" fill="#A3A3A3"/>
<path d="M8.09503 4.34973C6.07919 4.34973 4.44479 5.98413 4.44479 7.99997C4.44479 10.0158 6.07919 11.6502 8.09503 11.6502C10.1109 11.6502 11.7453 10.0158 11.7453 7.99997C11.7453 5.98413 10.1109 4.34973 8.09503 4.34973ZM8.09503 10.2814C6.83753 10.2814 5.81363 9.25748 5.81363 7.99997C5.81363 6.74155 6.83753 5.71857 8.09503 5.71857C9.35254 5.71857 10.3764 6.74155 10.3764 7.99997C10.3764 9.25748 9.35254 10.2814 8.09503 10.2814Z" fill="#A3A3A3"/>
<path d="M12.0191 4.56238C12.2877 4.56238 12.5055 4.34462 12.5055 4.07599C12.5055 3.80736 12.2877 3.5896 12.0191 3.5896C11.7505 3.5896 11.5327 3.80736 11.5327 4.07599C11.5327 4.34462 11.7505 4.56238 12.0191 4.56238Z" fill="#A3A3A3"/>
</g>
<defs>
<clipPath id="clip0">
<rect width="14.601" height="14.601" fill="white" transform="translate(0.794556 0.699463)"/>
</clipPath>
</defs>
</svg>
