<svg width="9" height="16" viewBox="0 0 9 16" fill="none" xmlns="http://www.w3.org/2000/svg">
<path fill-rule="evenodd" clip-rule="evenodd" d="M4.68768 6.0312C5.59372 6.0312 6.32821 5.29671 6.32821 4.39067C6.32821 3.48462 5.59372 2.75013 4.68768 2.75013C3.78164 2.75013 3.04714 3.48462 3.04714 4.39067C3.04714 5.29671 3.78164 6.0312 4.68768 6.0312ZM4.68768 8.08187C6.72627 8.08187 8.37888 6.42926 8.37888 4.39067C8.37888 2.35207 6.72627 0.699463 4.68768 0.699463C2.64908 0.699463 0.996475 2.35207 0.996475 4.39067C0.996475 6.42926 2.64908 8.08187 4.68768 8.08187Z" fill="#A3A3A3"/>
<path d="M3.7471 11.2616C2.76388 11.0701 1.80346 10.5925 0.795193 9.90828C0.326631 9.59029 0.241554 8.94271 0.58435 8.49198C0.927146 8.04125 1.56725 7.95894 2.03859 8.27281C3.15766 9.01802 3.97223 9.30461 4.70314 9.3044C5.43002 9.3042 6.23337 9.02016 7.33079 8.2818C7.80063 7.96569 8.44127 8.04351 8.78703 8.49198C9.13278 8.94045 9.05203 9.58868 8.58514 9.90912C7.58034 10.5987 6.61946 11.0787 5.62947 11.2668L7.84818 13.4855C8.0751 13.6735 8.21964 13.9575 8.21964 14.2752C8.21964 14.8414 7.76066 15.3004 7.19449 15.3004C6.88866 15.3004 6.61411 15.1665 6.42629 14.9541L6.42148 14.9589L4.6857 13.2231L2.95847 14.9503C2.77057 15.1649 2.49459 15.3004 2.18697 15.3004C1.62079 15.3004 1.16181 14.8414 1.16181 14.2752C1.16181 13.972 1.2935 13.6995 1.5028 13.5118L1.49988 13.5088L3.7471 11.2616Z" fill="#A3A3A3"/>
</svg>
