<svg width="21" height="18" viewBox="0 0 21 18" fill="none" xmlns="http://www.w3.org/2000/svg">
<path d="M17.8723 9C17.8723 13.8325 13.8715 17.75 8.93616 17.75C4.00086 17.75 0 13.8325 0 9C0 4.16751 4.00086 0.25 8.93616 0.25C13.8715 0.25 17.8723 4.16751 17.8723 9Z" fill="white"/>
<path fill-rule="evenodd" clip-rule="evenodd" d="M8.93616 16.4375C13.1312 16.4375 16.5319 13.1076 16.5319 9C16.5319 4.89238 13.1312 1.5625 8.93616 1.5625C4.74115 1.5625 1.34042 4.89238 1.34042 9C1.34042 13.1076 4.74115 16.4375 8.93616 16.4375ZM8.93616 17.75C13.8715 17.75 17.8723 13.8325 17.8723 9C17.8723 4.16751 13.8715 0.25 8.93616 0.25C4.00086 0.25 0 4.16751 0 9C0 13.8325 4.00086 17.75 8.93616 17.75Z" fill="#CF0000"/>
<path d="M21 9C21 11.4162 18.9996 13.375 16.5319 13.375C14.0643 13.375 12.0638 11.4162 12.0638 9C12.0638 6.58375 14.0643 4.625 16.5319 4.625C18.9996 4.625 21 6.58375 21 9Z" fill="white"/>
<path d="M8.644 12.0625H4.02136L4.18997 11.0324L6.61603 8.89673L6.94856 8.58148C7.47 8.08419 7.70886 7.61502 7.66514 7.17398C7.6308 6.83061 7.44346 6.65449 7.10312 6.64561C6.8627 6.63969 6.65819 6.73293 6.48958 6.92533C6.32409 7.11478 6.22106 7.36342 6.18047 7.67127L4.64895 7.68015C4.67393 7.27462 4.80351 6.90461 5.03769 6.57013C5.27186 6.23268 5.5841 5.96924 5.97439 5.77979C6.36781 5.59035 6.7862 5.49711 7.22958 5.50007C7.89464 5.51191 8.40982 5.68359 8.77514 6.01512C9.14045 6.34368 9.29969 6.78917 9.25286 7.35158C9.22476 7.68311 9.10923 8.00575 8.90628 8.31952C8.70645 8.63328 8.41451 8.96333 8.03046 9.30965L7.31856 9.93126L6.26009 10.8992L8.83602 10.9081L8.644 12.0625Z" fill="black"/>
<path d="M12.8077 12.0625H11.2621L12.1332 7.31162L10.5455 7.73787L10.761 6.55237L13.7771 5.59775L13.9504 5.59331L12.8077 12.0625Z" fill="black"/>
<path d="M17.1593 8.67564H18.3192L18.144 9.62287H16.9876L16.7458 10.9044H15.6699L15.9082 9.62287H14.7448L14.92 8.67564H16.0834L16.3147 7.43015H17.3906L17.1593 8.67564Z" fill="black"/>
<path fill-rule="evenodd" clip-rule="evenodd" d="M15.8897 11.9979C15.7022 12.4142 15.4768 12.8106 15.2179 13.1827C15.6333 13.3077 16.0746 13.375 16.5319 13.375C18.9996 13.375 21 11.4162 21 9C21 6.58375 18.9996 4.625 16.5319 4.625C16.0746 4.625 15.6333 4.69227 15.2179 4.81726C15.4768 5.18941 15.7022 5.58576 15.8897 6.00213C16.097 5.95977 16.3118 5.9375 16.5319 5.9375C18.2593 5.9375 19.6596 7.30863 19.6596 9C19.6596 10.6914 18.2593 12.0625 16.5319 12.0625C16.3118 12.0625 16.097 12.0402 15.8897 11.9979Z" fill="#CF0000"/>
</svg>
