<svg width="14" height="14" viewBox="0 0 14 14" fill="none" xmlns="http://www.w3.org/2000/svg">
<rect width="14" height="14" rx="1" fill="#EA040C"/>
<path d="M2.53449 4.31664C2.6591 4.0158 2.51624 3.6709 2.2154 3.54629C1.91456 3.42167 1.56966 3.56453 1.44505 3.86537C1.32043 4.16621 1.46329 4.51111 1.76413 4.63573C2.06497 4.76034 2.40987 4.61748 2.53449 4.31664Z" fill="white"/>
<path d="M11.5747 5.34462L10.1197 8.58563L8.5957 5.34462H7.73373L9.72661 9.55104C9.72661 9.55104 9.52663 10.0613 9.03703 10.0613C8.54743 10.0613 8.43365 9.56828 8.43365 9.56828C8.43365 9.56828 8.43365 8.67872 8.43365 7.52368C8.43365 6.36864 6.92348 6.2652 6.92348 6.2652C6.92348 6.2652 7.43377 5.98937 7.43377 5.03776C7.43377 3.56896 5.89601 3.5 5.89601 3.5C5.89601 3.5 4.12725 3.5 3.71005 3.5C3.29286 3.5 3.35492 3.85168 3.35492 3.85168V8.78561C3.35492 8.78561 3.29631 8.78561 2.81705 8.78561C2.33779 8.78561 2.41709 8.38565 2.41709 8.38565V5.32393H1.54133C1.54133 5.32393 1.54133 7.93743 1.54133 8.60977C1.54133 9.2821 2.25504 9.3752 2.25504 9.3752C2.25504 9.3752 3.34802 9.3752 3.77901 9.3752C4.20999 9.3752 4.19965 9.02351 4.19965 9.02351V6.86858H5.41331L6.13736 7.24096C6.13736 7.03408 7.06829 6.6031 7.50962 7.36163C5.70638 8.04431 5.28573 8.74768 5.28573 8.74768C5.28573 8.74768 5.103 8.9649 5.103 9.46484C5.103 9.96478 5.74086 10.6785 6.71316 10.6785C7.68546 10.6785 8.04749 10.1958 8.04749 10.1958C8.04749 10.1958 8.42676 10.6509 9.15081 10.6509C10.2541 10.6509 10.6093 9.54069 10.6093 9.54069L12.4194 5.34462H11.5747ZM5.6719 6.20659H4.21689V4.11717L5.44089 4.08959C5.44089 4.08959 6.56145 4.05166 6.56145 5.08258C6.56145 6.13763 5.6719 6.20659 5.6719 6.20659ZM7.61995 9.30624C7.61995 9.30624 7.57513 10.0682 6.77177 10.0682C5.96842 10.0682 5.86153 9.5338 5.86153 9.5338C5.86153 9.5338 5.60294 8.6339 7.61995 8.02018V9.30624Z" fill="white"/>
</svg>
