<svg width="17" height="16" viewBox="0 0 17 16" fill="none" xmlns="http://www.w3.org/2000/svg">
<rect x="0.609238" width="16" height="16" rx="2" fill="white"/>
<path fill-rule="evenodd" clip-rule="evenodd" d="M11.1169 7.14594V7.47066L10.7766 7.63302L10.7587 7.3083L11.1169 7.14594ZM9.23621 7.14594C9.34367 6.92946 9.28994 6.98358 9.43323 6.92946C9.63026 7.16398 9.50488 7.18202 9.32576 7.3083L9.23621 7.14594ZM10.6333 6.82123C10.7587 6.73103 10.8841 6.60475 11.0274 6.55063L11.0811 6.87534C10.9736 6.96554 10.8661 7.0377 10.7229 7.10986L10.6333 6.82123ZM9.00336 6.82123C9.05709 6.67691 8.98545 6.80319 9.11083 6.67691L9.32576 6.64083C9.36159 6.83926 9.27203 6.92946 9.18247 7.0377C9.09291 6.98358 9.03918 6.9475 9.00336 6.82123ZM8.66304 6.69495C8.69886 6.47847 8.77051 6.47847 8.77051 6.24395L9.075 6.38827C9.09291 6.56867 9.02127 6.65887 8.89589 6.82123L8.66304 6.69495ZM8.32272 6.09963C8.48392 6.08159 8.48392 6.09963 8.66304 6.11767L8.51975 6.62279L8.23316 6.55063L8.32272 6.09963ZM10.3646 6.26199C10.5437 6.09963 10.5437 6.00943 10.7945 5.90119L10.902 6.26199C10.7408 6.44239 10.7229 6.47847 10.5079 6.60475L10.3646 6.26199ZM9.88102 5.79295C9.95266 5.59451 10.1855 5.34195 10.3825 5.23371L10.5796 5.61255C10.4363 5.82903 10.3825 5.91923 10.1497 6.06355C10.078 5.93727 10.1318 6.00943 10.0243 5.90119C9.95266 5.82903 9.95266 5.86511 9.88102 5.79295ZM9.55861 4.65643C9.80937 4.72859 9.86311 4.85487 10.096 4.96311L9.75564 5.66667L9.25412 5.35999L9.55861 4.65643ZM8.64513 4.31367L9.23621 4.47603L9.02127 5.28783L8.46601 5.19763L8.64513 4.31367ZM8.39437 4.34975L8.05405 6.64083L7.73164 8.67934H11.6543C11.6005 8.58914 11.6722 8.37266 11.708 8.3005C12.2274 6.28003 10.9378 4.15132 8.80633 3.70032C8.66304 3.9168 8.57348 3.9168 8.48392 4.04308C8.39437 4.1874 8.50184 4.31367 8.48392 4.58427L8.39437 4.38583C8.39437 4.36779 8.39437 4.36779 8.39437 4.34975Z" fill="#FF9000"/>
<path fill-rule="evenodd" clip-rule="evenodd" d="M5.00909 6.53247C4.79416 7.38034 4.90162 7.93958 5.22403 8.67922H7.73163L8.05403 6.64071L7.96448 6.38815L6.47783 6.33403C6.47783 6.20775 6.56739 6.37011 6.47783 6.27991C6.40618 6.47835 6.2808 6.47835 6.04796 6.47835C6.08378 6.73091 6.1196 6.60463 6.04796 6.8211C5.81511 6.9113 5.63599 6.83914 5.54644 6.56855C5.4927 6.67679 5.4927 6.67679 5.29568 6.60463C5.09865 6.53247 5.13447 6.42423 5.09865 6.65875C4.97327 6.58659 4.99118 6.78503 5.00909 6.53247Z" fill="#FF5C1A"/>
<path fill-rule="evenodd" clip-rule="evenodd" d="M5.65387 6.51452C5.76134 6.38824 5.68969 6.3702 5.88672 6.49648C6.04792 6.60472 6.0121 6.53256 5.97627 6.74904L5.67178 6.5506L5.65387 6.51452ZM6.45988 6.13568C6.35241 6.1898 6.31659 6.22588 6.24495 6.29804C6.11957 6.15372 6.08374 6.13568 5.99419 5.95528L6.19121 5.829C6.31659 5.95528 6.37033 6.08156 6.45988 6.13568ZM6.94349 5.829C6.92558 5.829 6.90767 5.829 6.90767 5.84704L6.83602 5.86508C6.76438 5.90116 6.76438 5.88312 6.72855 5.93724L6.54944 5.52232L6.78229 5.35996C6.88976 5.4682 6.90767 5.59448 6.99723 5.79292L6.94349 5.829ZM7.24799 5.16152C7.69577 5.14348 7.65995 4.94504 7.71368 5.63056L7.33754 5.66664L7.24799 5.16152ZM5.00906 6.53256C4.99115 6.78512 4.97323 6.58668 5.09861 6.65884C5.13444 6.42432 5.09861 6.53256 5.29564 6.60472C5.49267 6.67688 5.49267 6.67688 5.5464 6.56864C5.63596 6.83924 5.81507 6.9114 6.04792 6.8212C6.11957 6.60472 6.08374 6.731 6.04792 6.47844C6.28077 6.47844 6.40615 6.47844 6.47779 6.28C6.56735 6.3702 6.47779 6.20784 6.47779 6.33412L7.96444 6.38824L8.054 6.6408L8.39432 4.34973C8.30476 4.18737 7.94653 4.20541 7.78533 4.22345C7.15843 4.24149 6.639 4.43992 6.15539 4.76464L6.11957 4.81876C5.81507 5.05328 5.65387 5.17956 5.47475 5.52232C5.22399 5.90116 5.18817 6.06352 5.00906 6.53256Z" fill="#F53B21"/>
<path fill-rule="evenodd" clip-rule="evenodd" d="M2.94934 11.0787C2.68067 11.0787 2.66275 11.0606 2.80605 10.4834C2.93143 9.90608 3.39712 9.90608 3.39712 10.1947C3.39712 10.5014 3.37921 11.0787 2.94934 11.0787ZM1.6418 12.5219H2.4299C2.4299 12.2152 2.5732 11.9807 2.5732 11.6379C2.93143 11.6559 3.16427 11.8363 3.71953 11.4395C3.97029 11.241 4.18523 10.8802 4.22105 10.5194C4.34643 9.6896 3.91656 9.25664 3.30757 9.40096C3.02098 9.47312 3.02098 9.54528 2.85978 9.67156C2.87769 9.58136 2.8956 9.54528 2.8956 9.40096H2.19706L1.92838 10.9524C1.87465 11.241 1.82091 11.4755 1.76718 11.7461C1.73136 12.0167 1.65971 12.2873 1.6418 12.5219Z" fill="#004013"/>
<path fill-rule="evenodd" clip-rule="evenodd" d="M12.0662 8.67929H14.932C15.4694 8.69733 15.344 8.80557 15.4873 8.02985C15.5052 7.86749 15.5589 7.6871 15.5769 7.52474C14.95 7.52474 12.7469 7.43454 12.2812 7.54278L12.0662 8.67929Z" fill="#004013"/>
<path fill-rule="evenodd" clip-rule="evenodd" d="M5.22399 11.0245C5.09861 10.5013 5.25982 9.96015 5.81507 9.96015C5.81507 10.2127 5.76134 10.4653 5.68969 10.6817C5.60013 10.9704 5.5464 11.0245 5.22399 11.0245ZM4.32842 10.9343C4.32842 11.3492 4.59709 11.692 5.02697 11.692C5.45684 11.692 5.47475 11.4755 5.72551 11.3131C5.72551 11.5116 5.68969 11.4575 5.67178 11.6379H6.42406C6.42406 11.0967 6.44197 10.9704 6.54944 10.4472C6.60317 10.1947 6.71064 9.72563 6.71064 9.49111C6.04792 9.34679 5.60013 9.29267 5.04488 9.59935C4.63292 9.81583 4.32842 10.3029 4.32842 10.9343Z" fill="#004013"/>
<path fill-rule="evenodd" clip-rule="evenodd" d="M11.7617 10.2848C11.7975 9.94209 12.0125 9.96012 12.1916 9.96012C12.3707 9.96012 12.2095 9.94209 12.3349 9.9962C12.317 10.2127 12.2632 10.2848 11.7617 10.2848ZM10.9378 10.7178C10.9378 12.161 12.5857 11.5657 12.8006 11.5476C12.8006 10.6276 12.9081 11.0786 12.0483 11.0786C11.7796 11.0786 11.7438 10.9523 11.6901 10.8621C12.3528 10.8621 13.0693 10.7539 13.0693 10.0864C13.0693 9.43697 12.3886 9.27461 11.8155 9.45501C11.3498 9.59933 10.9378 10.0684 10.9378 10.7178Z" fill="#004013"/>
<path fill-rule="evenodd" clip-rule="evenodd" d="M5.54639 4.67447C5.52848 4.87291 5.58221 4.65643 5.51056 4.78271C5.36727 5.12547 4.16721 6.08159 4.54335 8.13814C4.59708 8.35462 4.66873 8.46286 4.70455 8.67934H5.22398C4.90158 7.9397 4.79411 7.38046 5.00904 6.53259C5.18816 6.06355 5.22398 5.90119 5.47474 5.52235C5.65386 5.17959 5.81506 5.05331 6.11955 4.81879L6.15538 4.76467C6.63898 4.43995 7.15842 4.24151 7.78532 4.22347C7.94652 4.20543 8.30475 4.1874 8.3943 4.34975C8.3943 4.36779 8.3943 4.36779 8.3943 4.38583L8.48386 4.58427C8.50177 4.31367 8.3943 4.1874 8.48386 4.04308C8.57342 3.9168 8.66298 3.9168 8.80627 3.70032C8.01816 3.6462 7.58829 3.59208 6.87183 3.86268C6.3524 4.04308 5.86879 4.38583 5.54639 4.67447Z" fill="#FFB200"/>
<path fill-rule="evenodd" clip-rule="evenodd" d="M9.28989 10.9343C9.55857 10.9343 9.63021 10.9523 9.86306 10.8621C9.82724 11.0245 9.73768 11.5116 9.68395 11.6378H10.472C10.5437 11.2951 10.6333 10.8802 10.687 10.5554C10.7407 10.2127 10.884 9.70755 10.884 9.40087C9.97053 9.40087 10.1496 9.32871 10.0422 9.79775C10.0243 9.94207 9.97053 10.1766 9.95262 10.339C9.86306 10.339 9.48692 10.4833 9.48692 10.1946C9.48692 9.83383 9.57648 9.72559 9.57648 9.40087C8.73464 9.40087 8.86002 9.32871 8.75255 9.76167C8.73464 9.90599 8.66299 10.1946 8.66299 10.339C8.66299 10.7178 8.93167 10.9343 9.28989 10.9343Z" fill="#004013"/>
<path fill-rule="evenodd" clip-rule="evenodd" d="M6.74639 10.6638C6.74639 11.8003 7.5524 11.7822 8.3226 11.6018V10.9704C8.07184 11.0426 7.82108 11.1328 7.64196 10.9163C7.48076 10.7359 7.5524 10.4292 7.6957 10.2488C7.87481 10.0143 7.98228 9.99628 8.35842 10.0143C8.51962 10.0143 8.50171 10.0865 8.66291 9.45508C8.14348 9.3288 7.80316 9.34684 7.37329 9.5994C7.03297 9.79784 6.74639 10.1406 6.74639 10.6638Z" fill="#004013"/>
<path fill-rule="evenodd" clip-rule="evenodd" d="M4.00606 7.52477C4.04188 8.01184 4.11353 8.2644 4.20308 8.67932H4.7046C4.66878 8.46284 4.59714 8.3546 4.5434 8.13812C4.16726 6.08157 5.36733 5.12546 5.51062 4.7827C5.58227 4.65642 5.52853 4.8729 5.54644 4.67446C5.54644 4.5121 5.4748 4.62034 5.67182 4.47602C5.74347 4.4219 5.77929 4.4219 5.86885 4.34974C5.99423 4.2415 6.08379 4.1513 6.24499 4.07914C6.19125 3.9709 6.15543 3.8807 6.1017 3.77246C5.88676 3.82658 5.43897 4.20542 5.25986 4.38582C5.11657 4.49406 5.04492 4.6023 4.91954 4.74662C4.20308 5.64861 4.05979 6.37021 4.00606 7.52477Z" fill="#FF9000"/>
<path fill-rule="evenodd" clip-rule="evenodd" d="M13.1051 9.9962H13.6783L13.3558 11.6378H14.144C14.1619 11.4755 14.4126 10.0864 14.4664 9.9962H15.0754C15.1291 9.88796 15.2186 9.56324 15.2186 9.40088H13.2126C13.1946 9.61736 13.123 9.76168 13.1051 9.9962Z" fill="#004013"/>
<path fill-rule="evenodd" clip-rule="evenodd" d="M6.62118 3.53791C6.67492 3.64615 6.60327 3.41163 6.65701 3.62811C6.65701 3.68223 6.65701 3.71831 6.65701 3.77243C6.60327 3.93479 6.38834 4.00695 6.24504 4.07911C6.08384 4.15127 5.99429 4.24147 5.86891 4.34971C5.77935 4.42187 5.74353 4.42187 5.67188 4.47599C5.47485 4.62031 5.5465 4.51207 5.5465 4.67443C5.86891 4.38579 6.35251 4.04303 6.87194 3.86263C7.5884 3.59203 8.01827 3.64615 8.80638 3.70027C10.9378 4.15127 12.2275 6.27998 11.708 8.30045C11.6722 8.37261 11.6006 8.58909 11.6543 8.67929H11.7438C12.2095 7.77729 11.923 5.95526 11.4214 5.41406C11.2423 5.03522 10.5617 4.36775 10.2035 4.13323C10.0244 4.00695 9.80941 3.88067 9.57657 3.82655C9.57657 3.68223 9.55865 3.79047 9.59448 3.66419C9.61239 3.57399 9.61239 3.57399 9.6303 3.53791C9.48701 3.26731 7.98245 3.15907 7.30182 3.30339C7.08688 3.32143 6.67492 3.42967 6.62118 3.53791Z" fill="#D12F1A"/>
<path fill-rule="evenodd" clip-rule="evenodd" d="M4.20315 8.67922C4.1136 8.2643 4.04195 8.01174 4.00613 7.52466H2.48365C2.46574 7.68702 2.41201 7.93958 2.3941 8.10194C2.35827 8.30038 2.32245 8.49882 2.28663 8.67922H4.20315Z" fill="#004013"/>
<path fill-rule="evenodd" clip-rule="evenodd" d="M11.4214 5.4141C11.9229 5.95529 12.2095 7.77732 11.7438 8.67932H12.0662L12.2812 7.5428C12.2812 6.64081 12.0483 5.82901 11.6184 5.10742C11.4931 4.92702 11.511 4.92702 11.3677 4.85486C11.4035 5.07134 11.4393 4.98114 11.4393 5.12546C11.4393 5.19762 11.4393 5.34194 11.4214 5.4141Z" fill="#FF5C1A"/>
<path fill-rule="evenodd" clip-rule="evenodd" d="M8.46612 5.19755L9.02137 5.28775L9.23631 4.47596L8.64523 4.3136L8.46612 5.19755Z" fill="#E91524"/>
<path fill-rule="evenodd" clip-rule="evenodd" d="M10.2034 4.13315C10.5616 4.36767 11.2423 5.03514 11.4214 5.41398C11.4393 5.34182 11.4393 5.1975 11.4393 5.12534C11.4393 4.98103 11.4035 5.07122 11.3677 4.85475C11.3139 4.56611 10.5437 3.98883 10.3288 3.86255L10.2034 4.13315Z" fill="#FF9000"/>
<path fill-rule="evenodd" clip-rule="evenodd" d="M9.2541 5.35993L9.75562 5.66661L10.0959 4.96305C9.86309 4.85481 9.80936 4.72853 9.5586 4.65637L9.2541 5.35993Z" fill="#E91524"/>
<path fill-rule="evenodd" clip-rule="evenodd" d="M9.88106 5.79288C9.9527 5.86504 9.9527 5.82896 10.0243 5.90112C10.1318 6.00936 10.0781 5.9372 10.1497 6.06348C10.3826 5.91916 10.4363 5.82896 10.5796 5.61248L10.3826 5.23364C10.1855 5.34188 9.9527 5.59444 9.88106 5.79288Z" fill="#E91524"/>
<path fill-rule="evenodd" clip-rule="evenodd" d="M10.2035 4.13316L10.3288 3.86256C10.1497 3.7002 9.89896 3.57392 9.63029 3.53784C9.61238 3.57392 9.61238 3.57392 9.59446 3.66412C9.55864 3.7904 9.57655 3.68216 9.57655 3.82648C9.8094 3.8806 10.0243 4.00688 10.2035 4.13316Z" fill="#FF5C1A"/>
<path fill-rule="evenodd" clip-rule="evenodd" d="M10.3648 6.26192L10.508 6.60468C10.723 6.4784 10.7409 6.44232 10.9021 6.26192L10.7946 5.90112C10.5439 6.00936 10.5439 6.09956 10.3648 6.26192Z" fill="#E91524"/>
<path fill-rule="evenodd" clip-rule="evenodd" d="M7.24805 5.16153L7.33761 5.66666L7.71375 5.63058C7.66002 4.94505 7.69584 5.14349 7.24805 5.16153Z" fill="#FFB200"/>
<path fill-rule="evenodd" clip-rule="evenodd" d="M6.10176 3.7724C6.1555 3.88064 6.19132 3.97084 6.24505 4.07908C6.38834 4.00692 6.60328 3.93476 6.65701 3.7724C6.65701 3.71828 6.65701 3.6822 6.65701 3.62808C6.60328 3.4116 6.67493 3.64612 6.62119 3.53788C6.44208 3.57396 6.45999 3.55592 6.33461 3.62808L6.10176 3.7724Z" fill="#FF5C1A"/>
<path fill-rule="evenodd" clip-rule="evenodd" d="M8.23321 6.55063L8.51979 6.62279L8.66308 6.11768C8.48397 6.09964 8.48397 6.0816 8.32276 6.09964L8.23321 6.55063Z" fill="#F53B21"/>
<path fill-rule="evenodd" clip-rule="evenodd" d="M6.54961 5.52222L6.72873 5.93714C6.76455 5.88302 6.76455 5.90106 6.8362 5.86498L6.90784 5.84694C6.90784 5.8289 6.92575 5.8289 6.94367 5.8289L6.9974 5.79282C6.90784 5.59438 6.88993 5.4681 6.78246 5.35986L6.54961 5.52222Z" fill="#FFB200"/>
<path fill-rule="evenodd" clip-rule="evenodd" d="M8.66299 6.6949L8.89584 6.82118C9.02122 6.65882 9.09286 6.56862 9.07495 6.38822L8.77046 6.2439C8.77046 6.47842 8.69882 6.47842 8.66299 6.6949Z" fill="#F53B21"/>
<path fill-rule="evenodd" clip-rule="evenodd" d="M10.6333 6.82114L10.7229 7.10978C10.8662 7.03762 10.9736 6.96546 11.0811 6.87526L11.0274 6.55054C10.8841 6.60466 10.7587 6.73094 10.6333 6.82114Z" fill="#E91524"/>
<path fill-rule="evenodd" clip-rule="evenodd" d="M10.7587 7.30836L10.7766 7.63307L11.1169 7.47071V7.146L10.7587 7.30836Z" fill="#E91524"/>
<path fill-rule="evenodd" clip-rule="evenodd" d="M5.99415 5.95526C6.08371 6.13566 6.11953 6.1537 6.24491 6.29802C6.31655 6.22586 6.35238 6.18978 6.45985 6.13566C6.37029 6.08154 6.31655 5.95526 6.19117 5.82898L5.99415 5.95526Z" fill="#FFB200"/>
<path fill-rule="evenodd" clip-rule="evenodd" d="M9.00343 6.82115C9.03925 6.94743 9.09298 6.9835 9.18254 7.03762C9.2721 6.92939 9.36165 6.83919 9.32583 6.64075L9.11089 6.67683C8.98551 6.80311 9.05716 6.67683 9.00343 6.82115Z" fill="#F53B21"/>
<path fill-rule="evenodd" clip-rule="evenodd" d="M9.23624 7.14592L9.3258 7.30828C9.50492 7.182 9.6303 7.16396 9.43327 6.92944C9.28997 6.98356 9.34371 6.92944 9.23624 7.14592Z" fill="#F53B21"/>
<path fill-rule="evenodd" clip-rule="evenodd" d="M5.88676 6.49645C5.68974 6.37017 5.76138 6.38821 5.65392 6.51449L5.67183 6.55057L5.97632 6.74901C6.01214 6.53253 6.04796 6.60469 5.88676 6.49645Z" fill="#FFB200"/>
</svg>
