<svg width="17" height="16" viewBox="0 0 17 16" fill="none" xmlns="http://www.w3.org/2000/svg">
<path d="M0.0499115 1.65022C0.0499115 0.738831 0.788742 0 1.70014 0H14.3997C15.3111 0 16.0499 0.738831 16.0499 1.65022V14.3498C16.0499 15.2612 15.3111 16 14.3997 16H1.70014C0.788743 16 0.0499115 15.2612 0.0499115 14.3498V1.65022Z" fill="white"/>
<path fill-rule="evenodd" clip-rule="evenodd" d="M7.97689 12.7836C9.73402 12.7836 11.1585 11.3676 11.1585 9.621C11.1585 7.87438 9.73402 6.45846 7.97689 6.45846C6.21976 6.45846 4.79533 7.87438 4.79533 9.621C4.79533 11.3676 6.21976 12.7836 7.97689 12.7836ZM7.97689 13.9164C10.3634 13.9164 12.2981 11.9933 12.2981 9.621C12.2981 7.24872 10.3634 5.32561 7.97689 5.32561C5.59034 5.32561 3.65566 7.24872 3.65566 9.621C3.65566 11.9933 5.59034 13.9164 7.97689 13.9164Z" fill="#0B357F"/>
<path d="M7.97689 12.7836H13.7227V13.9164H7.97689V12.7836Z" fill="#0B357F"/>
<path d="M2.15985 8.79497C2.77717 12.7127 6.59543 13.9636 7.97689 13.9164C7.11423 13.2005 5.06125 11.6082 4.60538 10.7775C4.03555 9.73901 4.43918 9.12538 4.96153 6.48206C5.81628 5.1604 8.08769 4.65691 9.11656 4.57037L4.2255 0.581787C4.08304 3.67353 1.63551 5.46721 2.15985 8.79497Z" fill="#0B357F"/>
<path fill-rule="evenodd" clip-rule="evenodd" d="M9.82885 7.96893H6.12494C5.81023 7.96893 5.5551 8.22253 5.5551 8.53535V10.7539C5.5551 11.0667 5.81023 11.3203 6.12494 11.3203H9.82885C10.1436 11.3203 10.3987 11.0667 10.3987 10.7539V8.53535C10.3987 8.22253 10.1436 7.96893 9.82885 7.96893ZM6.12494 7.78012C5.70532 7.78012 5.36516 8.11825 5.36516 8.53535V10.7539C5.36516 11.171 5.70532 11.5091 6.12494 11.5091H9.82885C10.2485 11.5091 10.5886 11.171 10.5886 10.7539V8.53535C10.5886 8.11825 10.2485 7.78012 9.82885 7.78012H6.12494Z" fill="#0B357F"/>
<path fill-rule="evenodd" clip-rule="evenodd" d="M6.73311 9.16862C6.32926 8.77134 5.93212 8.31371 5.6895 8.01325L5.8006 7.92461C6.04076 8.22203 6.43426 8.67541 6.83332 9.06797C7.0329 9.26431 7.23272 9.44429 7.41463 9.58175C7.59882 9.72093 7.75655 9.81016 7.8731 9.83498C8.01201 9.86457 8.20691 9.80731 8.43853 9.67867C8.66627 9.55219 8.9144 9.36535 9.15308 9.16031C9.63073 8.75 10.0604 8.27572 10.1992 8.09165L10.3132 8.17661C10.1672 8.37016 9.73018 8.85173 9.24623 9.26745C9.00412 9.47544 8.74771 9.66917 8.50801 9.80229C8.27219 9.93326 8.03675 10.0147 7.84325 9.97345C7.69388 9.94163 7.51486 9.83536 7.32841 9.69448C7.13968 9.55186 6.93498 9.36721 6.73311 9.16862Z" fill="#0B357F"/>
<path fill-rule="evenodd" clip-rule="evenodd" d="M8.64515 9.83878C9.53049 10.2023 10.185 10.7868 10.4049 11.0378L10.2975 11.1308C10.09 10.8939 9.4529 10.3236 8.59076 9.96966L8.64515 9.83878ZM7.38686 9.96962C6.62461 10.2838 5.98025 10.9666 5.75472 11.2681L5.6404 11.1836C5.8739 10.8715 6.537 10.1666 7.33229 9.83882L7.38686 9.96962Z" fill="#0B357F"/>
</svg>
