<svg width="16" height="10" viewBox="0 0 16 10" fill="none" xmlns="http://www.w3.org/2000/svg">
<path d="M0.0499268 1.92308C0.0499268 0.860991 0.910918 0 1.973 0H15.4345V8.07692C15.4345 9.13901 14.5736 10 13.5115 10H0.0499268V1.92308Z" fill="white"/>
<path d="M11.8249 0.384644C11.7784 1.06298 11.0461 2.03155 7.74214 2.69234C3.20336 3.60009 0.721331 6.39322 0.457879 9.61541H0.43445V1.92311C0.43445 1.07344 1.12324 0.384644 1.97291 0.384644H11.8249Z" fill="#008E78"/>
<path d="M15.0498 0.685034C14.1403 2.69151 12.2608 3.06887 10.1938 3.4839C8.73745 3.7763 7.18802 4.08739 5.81907 5.00003C5.77592 5.02879 5.73035 5.05857 5.68266 5.08972C4.88026 5.614 3.47901 6.52956 2.93445 9.61541H3.96741C8.98688 9.44131 9.66522 6.68392 9.66522 5.96157C9.66522 5.34618 9.2806 4.80772 9.0883 4.61541L10.0498 4.42311C10.755 4.359 12.2037 4.61541 12.3575 6.15387C12.5114 7.69234 10.1139 9.10259 8.89599 9.61541H13.5114C14.361 9.61541 15.0498 8.92662 15.0498 8.07695V0.685034Z" fill="#008E78"/>
</svg>
