<svg width="17" height="18" viewBox="0 0 17 18" fill="none" xmlns="http://www.w3.org/2000/svg">
<circle cx="7.7142" cy="8" r="7.27966" fill="white"/>
<path d="M12.1997 11.405L12.3475 12.3688L13.0607 11.1895C13.7984 9.96986 14.3892 8.58641 14.1627 7.04067C13.9448 5.55388 13.2163 4.18871 12.1016 3.1776C10.987 2.16653 9.55522 1.572 8.05038 1.4949C6.54554 1.4178 5.06022 1.86286 3.84747 2.75459C2.63469 3.64636 1.76943 4.92976 1.39961 6.38637C1.02978 7.84301 1.17841 9.38231 1.82005 10.7419C2.46167 12.1014 3.55641 13.1968 4.91734 13.8419C6.18764 14.444 7.61672 14.6191 8.99086 14.3458L9.00917 14.3636L9.28733 14.2796L9.60086 14.2021C9.9627 14.1279 10.4744 14.0666 10.8749 14.1405C10.9912 14.162 11.0912 14.1779 11.1824 14.1925C11.4518 14.2355 11.6432 14.266 11.946 14.3893C12.3584 14.5573 12.9642 14.8994 14.071 15.687L15.4689 16.6818L14.8242 15.0917C14.4926 14.274 14.1004 13.7015 13.6494 13.3014C13.1951 12.8983 12.7113 12.6971 12.2437 12.5771C11.9523 12.5024 11.6298 12.4531 11.3418 12.409C11.2845 12.4002 11.2285 12.3917 11.1744 12.3832C11.1993 12.3699 11.2239 12.3549 11.2481 12.3383C11.5005 12.1639 11.577 11.8944 11.577 11.657C11.577 11.5504 11.5548 11.4524 11.523 11.3662C11.6132 11.425 11.7386 11.4816 11.8921 11.4816C11.9942 11.4816 12.1016 11.4581 12.1997 11.405ZM10.9374 10.2764C10.9374 10.4506 10.9912 10.6283 11.0604 10.7806C10.8862 10.6506 10.6478 10.5286 10.3905 10.5286C10.1914 10.5286 9.92395 10.5733 9.73082 10.7994C9.55485 11.0054 9.5344 11.2586 9.5344 11.4219C9.5344 11.5479 9.56262 11.6645 9.60703 11.7694C8.66068 11.1039 8.24158 10.5204 8.16455 10.3637L7.21583 10.5842V11.5936C6.84574 11.5428 6.48297 11.4357 6.14072 11.2735C5.37492 10.9105 4.75958 10.2944 4.39913 9.53068C4.0387 8.76695 3.95527 7.90251 4.16296 7.08452C4.37064 6.2665 4.85672 5.54512 5.53885 5.04355C6.22101 4.54195 7.05693 4.29134 7.90416 4.33475C8.75138 4.37816 9.55699 4.71287 10.1838 5.28144C10.8106 5.84998 11.2197 6.61712 11.3421 7.45198C11.3591 7.56807 11.3781 7.67168 11.3935 7.75575C11.3952 7.76529 11.3969 7.77458 11.3986 7.7836C11.401 7.79659 11.4032 7.80884 11.4052 7.82042C11.3656 7.82454 11.3188 7.82834 11.2639 7.83165C11.0057 7.84719 10.634 7.84861 10.0864 7.84861L10.0105 8.84074C10.0102 8.84276 10.0101 8.84275 10.0101 8.84275L10.0103 8.84278L10.0161 8.84374L10.0454 8.84896C10.0723 8.85393 10.113 8.86194 10.1645 8.87345C10.2681 8.89658 10.4125 8.93326 10.5735 8.98681C10.9085 9.09827 11.259 9.26456 11.4844 9.48851C11.5064 9.51035 11.5278 9.53352 11.5487 9.5579C11.4366 9.56872 11.2799 9.60778 11.1448 9.73821C10.9706 9.9064 10.9374 10.1239 10.9374 10.2764ZM11.5419 10.7649C11.5418 10.7648 11.5418 10.763 11.5423 10.7597C11.5421 10.7633 11.5419 10.765 11.5419 10.7649Z" fill="#FF8D00" stroke="white"/>
</svg>
