<svg width="16" height="16" viewBox="0 0 16 16" fill="none" xmlns="http://www.w3.org/2000/svg">
<path d="M8 0C3.56364 0 0 3.56364 0 8C0 12.4364 3.56364 16 8 16C12.4364 16 16 12.4364 16 8C16 3.56364 12.4364 0 8 0ZM12.3636 7.27273H11.8182C11.7091 7.27273 11.6364 7.34545 11.6364 7.45455V12C11.6364 12.2182 11.4909 12.3636 11.2727 12.3636H4.72727C4.50909 12.3636 4.36364 12.2182 4.36364 12V7.45455C4.36364 7.34545 4.29091 7.27273 4.18182 7.27273H3.63636C3.41818 7.27273 3.27273 7.12727 3.27273 6.90909C3.27273 6.8 3.34545 6.65455 3.41818 6.61818L7.78182 3.70909C7.85455 3.67273 7.89091 3.63636 8 3.63636C8.10909 3.63636 8.14546 3.67273 8.21818 3.70909L12.5818 6.61818C12.6909 6.69091 12.7273 6.8 12.7273 6.90909C12.7273 7.12727 12.5818 7.27273 12.3636 7.27273Z" fill="#9CD3A8"/>
<path d="M8.10908 5.38176C8.03636 5.3454 7.96363 5.3454 7.8909 5.38176L5.8909 6.72722C5.85454 6.76358 5.81818 6.79995 5.81818 6.87267V10.7272C5.81818 10.8363 5.8909 10.909 5.99999 10.909H7.0909C7.19999 10.909 7.27272 10.8363 7.27272 10.7272V9.09086C7.27272 8.87267 7.41818 8.72722 7.63636 8.72722H8.36363C8.58181 8.72722 8.72727 8.87267 8.72727 9.09086V10.7272C8.72727 10.8363 8.79999 10.909 8.90909 10.909H9.99999C10.1091 10.909 10.1818 10.8363 10.1818 10.7272V6.87267C10.1818 6.79995 10.1454 6.76358 10.1091 6.72722L8.10908 5.38176Z" fill="#9CD3A8"/>
</svg>
