<svg width="16" height="16" viewBox="0 0 16 16" fill="none" xmlns="http://www.w3.org/2000/svg">
<g clip-path="url(#clip0)">
<path d="M10.9108 8.78133C11.0003 9.13504 10.0211 9.02282 9.78196 9.35397C9.54265 9.68496 8.95796 9.46256 8.82238 9.39893C8.68681 9.3353 8.16756 9.54736 8.21294 9.18688C8.25806 8.82629 8.57396 8.80512 8.91273 8.65669C9.25135 8.50842 9.73977 8.01541 9.49977 7.95099C8.3698 7.64789 7.9843 6.5864 7.9843 6.5864C7.91652 6.57365 7.93353 5.836 7.64014 5.81483C7.34649 5.79355 7.18836 5.89963 6.75956 5.81483C6.33049 5.73003 6.42094 5.45435 6.35316 4.86053C6.28553 4.26672 6.53396 4.4576 6.66815 4.26683C6.67988 4.25008 6.69513 4.23515 6.71006 4.22021C5.13897 4.75813 4.0058 6.24875 4.0058 7.99979C4.0058 8.00256 4.00596 8.00533 4.00596 8.00811C4.29796 8.02693 4.82969 8.08859 4.8547 8.28891C4.88926 8.56555 4.85471 8.91136 5.09679 9.01509C5.33887 9.11882 5.40804 8.60011 5.61551 8.73845C5.82297 8.8768 6.37631 9.00997 6.37631 9.25456C6.37631 9.49909 6.27257 9.87962 6.37631 9.9488C6.48004 10.018 6.89476 10.5021 6.89486 10.5712C6.89502 10.6404 7.04105 10.9922 6.99748 11.1266C6.96137 11.2381 6.77919 11.5842 6.60255 11.7416C7.03785 11.9047 7.50873 11.9944 8.0003 11.9944C10.203 11.9944 11.995 10.2025 11.995 7.99979C11.995 7.34747 11.8367 6.73163 11.5583 6.1872C11.585 6.59344 11.567 6.96363 11.6559 7.08491C12.0452 7.61499 10.7076 7.97963 10.9108 8.78133Z" fill="#9CD3A8"/>
<path d="M8.0023 0C3.58422 0 0.00262451 3.58192 0.00262451 7.99984C0.00262451 12.4178 3.58422 16 8.0023 16C12.4204 16 16.0023 12.418 16.0023 7.99984C16.0023 3.58171 12.4204 0 8.0023 0ZM8.00246 12.8246C5.3422 12.8246 3.17782 10.6604 3.17782 8C3.17782 5.33957 5.3422 3.17536 8.00246 3.17536C10.6627 3.17536 12.8271 5.33957 12.8271 8C12.8271 10.6604 10.6627 12.8246 8.00246 12.8246Z" fill="#9CD3A8"/>
</g>
<defs>
<clipPath id="clip0">
<rect width="16" height="16" fill="white"/>
</clipPath>
</defs>
</svg>
