<svg width="16" height="16" viewBox="0 0 16 16" fill="none" xmlns="http://www.w3.org/2000/svg">
<path fill-rule="evenodd" clip-rule="evenodd" d="M7.99892 15.9978C12.4166 15.9978 15.9978 12.4166 15.9978 7.99892C15.9978 3.58124 12.4166 0 7.99892 0C3.58124 0 0 3.58124 0 7.99892C0 12.4166 3.58124 15.9978 7.99892 15.9978ZM8 8C9.10457 8 10 7.10457 10 6C10 4.89543 9.10457 4 8 4C6.89543 4 6 4.89543 6 6C6 7.10457 6.89543 8 8 8ZM8 9.21043C9.35981 9.21043 10.4819 8.24616 10.646 7C11.4763 7.69438 12 8.71026 12 9.84202C12 10.3437 11.8971 10.8227 11.7102 11.2609C10.8575 12.318 9.5128 13 8 13C6.4872 13 5.14253 12.318 4.28982 11.2609C4.10291 10.8227 4 10.3437 4 9.84202C4 8.71026 4.52367 7.69438 5.35399 7C5.51809 8.24616 6.64019 9.21043 8 9.21043Z" fill="#9CD3A8"/>
</svg>
