<svg width="16" height="16" viewBox="0 0 16 16" fill="none" xmlns="http://www.w3.org/2000/svg">
<g clip-path="url(#clip0)">
<path d="M8.00097 0C3.58268 0 0.000999451 3.58168 0.000999451 7.99997C0.000999451 12.4183 3.58268 15.9999 8.00097 15.9999C12.4192 15.9999 16.0008 12.4183 16.0008 7.99997C16.0008 3.58168 12.4192 0 8.00097 0ZM10.605 10.908C9.75363 11.1801 8.98281 10.9175 8.4937 10.4086C8.53207 11.1192 8.63688 11.9917 8.90936 12.4793H7.09248C7.36496 11.9917 7.46977 11.1192 7.50814 10.4086C7.01903 10.9175 6.24815 11.1801 5.39686 10.908C3.89084 10.4265 2.31368 7.19364 8.00097 3.56452C13.6882 7.19364 12.1111 10.4265 10.605 10.908Z" fill="#9CD3A8"/>
</g>
<defs>
<clipPath id="clip0">
<rect width="16" height="16" fill="white"/>
</clipPath>
</defs>
</svg>
