<svg width="15" height="16" viewBox="0 0 15 16" fill="none" xmlns="http://www.w3.org/2000/svg">
<g clip-path="url(#clip0)">
<path d="M13.9804 3.94815C13.5844 3.24365 13.1545 3.11407 12.2794 3.06479C11.4052 3.00547 9.20681 2.98083 7.3023 2.98083C5.39414 2.98083 3.19487 3.00547 2.32155 3.06388C1.44823 3.11407 1.0175 3.24274 0.617803 3.94815C0.209889 4.65173 0 5.86361 0 7.99718C0 7.999 0 7.99991 0 7.99991C0 8.00174 0 8.00265 0 8.00265V8.00448C0 10.1289 0.209889 11.3499 0.617803 12.0462C1.0175 12.7507 1.44732 12.8785 2.32064 12.9378C3.19487 12.9889 5.39414 13.019 7.3023 13.019C9.20681 13.019 11.4052 12.9889 12.2803 12.9387C13.1555 12.8794 13.5853 12.7516 13.9813 12.0471C14.3929 11.3508 14.601 10.1298 14.601 8.00539C14.601 8.00539 14.601 8.00265 14.601 8.00083C14.601 8.00083 14.601 7.999 14.601 7.99809C14.601 5.86361 14.3929 4.65173 13.9804 3.94815ZM5.47536 10.7376V5.26223L10.0382 7.99991L5.47536 10.7376Z" fill="#A3A3A3"/>
</g>
<defs>
<clipPath id="clip0">
<rect width="14.601" height="14.601" fill="white" transform="translate(0 0.699463)"/>
</clipPath>
</defs>
</svg>
