<svg width="66" height="10" viewBox="0 0 66 10" fill="none" xmlns="http://www.w3.org/2000/svg">
<g clip-path="url(#clip0)">
<path d="M3.16172 3.21212C4.10643 3.21212 4.89115 3.69697 5.26446 4.2197V3.34091H6.70438V9.86364H5.66824C5.61416 9.86386 5.56056 9.85343 5.51055 9.83295C5.46053 9.81247 5.41509 9.78234 5.37684 9.74431C5.3386 9.70628 5.3083 9.66109 5.2877 9.61136C5.26711 9.56163 5.25662 9.50833 5.25684 9.45455V8.98485C4.89115 9.51515 4.10643 10 3.16172 10C1.36373 10 0 8.4697 0 6.60606C0 4.74242 1.36373 3.21212 3.16172 3.21212ZM3.42076 4.51515C2.25511 4.51515 1.46277 5.43182 1.46277 6.60606C1.46277 7.7803 2.24749 8.69697 3.42076 8.69697C4.5864 8.69697 5.37874 7.7803 5.37874 6.60606C5.37874 5.43182 4.59402 4.51515 3.42076 4.51515V4.51515ZM8.34238 3.34091H9.78991V4.22727C10.1861 3.57576 10.9327 3.21212 11.786 3.21212C13.3097 3.21212 14.2925 4.2803 14.2925 5.93939V9.86364H13.2564C13.2023 9.86386 13.1487 9.85343 13.0987 9.83295C13.0487 9.81247 13.0032 9.78234 12.965 9.74431C12.9267 9.70628 12.8964 9.66109 12.8758 9.61136C12.8552 9.56163 12.8448 9.50833 12.845 9.45455V6.17424C12.845 5.14394 12.3193 4.51515 11.4812 4.51515C10.5213 4.51515 9.78991 5.25758 9.78991 6.65152V9.86364H8.75378C8.69969 9.86386 8.64609 9.85343 8.59608 9.83295C8.54607 9.81247 8.50063 9.78234 8.46238 9.74431C8.42413 9.70628 8.39384 9.66109 8.37324 9.61136C8.35264 9.56163 8.34215 9.50833 8.34238 9.45455V3.34091ZM18.597 3.21212C19.5417 3.21212 20.3264 3.69697 20.6998 4.2197V0.0833334H22.1397V9.87121H21.1035C21.0495 9.87143 20.9959 9.861 20.9458 9.84052C20.8958 9.82004 20.8504 9.78992 20.8121 9.75188C20.7739 9.71385 20.7436 9.66867 20.723 9.61893C20.7024 9.5692 20.6919 9.51591 20.6921 9.46212V8.99242C20.3264 9.51515 19.5341 10 18.5894 10C16.7914 10 15.4277 8.4697 15.4277 6.60606C15.4353 4.74242 16.799 3.21212 18.597 3.21212V3.21212ZM18.8561 4.51515C17.6904 4.51515 16.8981 5.43182 16.8981 6.60606C16.8981 7.7803 17.6828 8.69697 18.8561 8.69697C20.0217 8.69697 20.814 7.7803 20.814 6.60606C20.814 5.43182 20.0217 4.51515 18.8561 4.51515V4.51515ZM23.7777 3.34091H25.2176V4.5C25.3439 4.14339 25.5777 3.83419 25.8872 3.61457C26.1967 3.39494 26.5668 3.27557 26.947 3.27273C27.1362 3.27229 27.325 3.29005 27.5108 3.32576V4.80303C27.2775 4.72481 27.0332 4.68389 26.787 4.68182C25.9566 4.68182 25.21 5.37121 25.21 6.68182V9.86364H24.1738C24.1198 9.86386 24.0662 9.85343 24.0161 9.83295C23.9661 9.81247 23.9207 9.78234 23.8824 9.74431C23.8442 9.70628 23.8139 9.66109 23.7933 9.61136C23.7727 9.56163 23.7622 9.50833 23.7624 9.45455V3.34091H23.7777ZM31.4115 10C29.4688 10 27.9755 8.5 27.9755 6.60606C27.9755 4.71212 29.4688 3.21212 31.4115 3.21212C33.3543 3.21212 34.8475 4.71212 34.8475 6.60606C34.8475 8.5 33.3543 10 31.4115 10ZM31.4115 8.66667C32.5696 8.66667 33.3771 7.76515 33.3771 6.60606C33.3771 5.44697 32.5619 4.54545 31.4115 4.54545C30.2459 4.54545 29.4307 5.44697 29.4307 6.60606C29.4307 7.76515 30.2459 8.66667 31.4115 8.66667ZM36.7369 1.91667C36.4808 1.91502 36.2357 1.81312 36.0546 1.63305C35.8735 1.45297 35.771 1.20921 35.7694 0.954545C35.7739 0.701484 35.8775 0.460163 36.0582 0.281903C36.2389 0.103642 36.4824 0.00250491 36.7369 0C36.9925 3.78737e-09 37.2377 0.100967 37.4184 0.280689C37.5991 0.460412 37.7007 0.704168 37.7007 0.958333C37.7007 1.2125 37.5991 1.45626 37.4184 1.63598C37.2377 1.8157 36.9925 1.91667 36.7369 1.91667V1.91667ZM36.0208 3.34091H37.4607V9.86364H36.4322C36.3781 9.86386 36.3245 9.85343 36.2745 9.83295C36.2245 9.81247 36.179 9.78234 36.1408 9.74431C36.1025 9.70628 36.0722 9.66109 36.0516 9.61136C36.0311 9.56163 36.0206 9.50833 36.0208 9.45455V3.34091V3.34091ZM41.8109 3.21212C42.7556 3.21212 43.5404 3.69697 43.9137 4.2197V0.0833334H45.3536V9.87121H44.3174C44.2634 9.87143 44.2098 9.861 44.1597 9.84052C44.1097 9.82004 44.0643 9.78992 44.026 9.75188C43.9878 9.71385 43.9575 9.66867 43.9369 9.61893C43.9163 9.5692 43.9058 9.51591 43.906 9.46212V8.99242C43.5403 9.51515 42.748 10 41.8033 10C40.0053 10 38.6416 8.4697 38.6416 6.60606C38.6492 4.74242 40.0129 3.21212 41.8109 3.21212V3.21212ZM42.0776 4.51515C40.9119 4.51515 40.1196 5.43182 40.1196 6.60606C40.1196 7.7803 40.9043 8.69697 42.0776 8.69697C43.2432 8.69697 44.0356 7.7803 44.0356 6.60606C44.0356 5.43182 43.2432 4.51515 42.0776 4.51515" fill="#575757"/>
<path d="M61.284 7.40153C61.1393 7.40153 60.9979 7.35887 60.8777 7.27896C60.7574 7.19904 60.6636 7.08546 60.6083 6.95257C60.5529 6.81968 60.5385 6.67345 60.5667 6.53237C60.5949 6.39129 60.6645 6.2617 60.7668 6.15999C60.8691 6.05828 60.9994 5.98902 61.1413 5.96095C61.2832 5.93289 61.4302 5.9473 61.5639 6.00234C61.6975 6.05739 61.8118 6.1506 61.8921 6.2702C61.9725 6.3898 62.0154 6.53041 62.0154 6.67425C62.0154 6.86714 61.9383 7.05212 61.8012 7.18851C61.664 7.3249 61.478 7.40153 61.284 7.40153ZM53.2311 7.40153C53.0865 7.40153 52.9451 7.35887 52.8248 7.27896C52.7045 7.19904 52.6108 7.08546 52.5554 6.95257C52.5001 6.81968 52.4856 6.67345 52.5138 6.53237C52.542 6.39129 52.6117 6.2617 52.714 6.15999C52.8163 6.05828 52.9466 5.98902 53.0885 5.96095C53.2303 5.93289 53.3774 5.9473 53.511 6.00234C53.6447 6.05739 53.7589 6.1506 53.8393 6.2702C53.9196 6.3898 53.9625 6.53041 53.9625 6.67425C53.9625 6.86714 53.8855 7.05212 53.7483 7.18851C53.6112 7.3249 53.4251 7.40153 53.2311 7.40153ZM61.543 3.03789L63.0058 0.530314C63.0255 0.495979 63.0383 0.458104 63.0432 0.418866C63.0482 0.379628 63.0453 0.339799 63.0348 0.301667C63.0242 0.263535 63.0062 0.227853 62.9817 0.196669C62.9573 0.165484 62.9269 0.139413 62.8922 0.119953C62.8576 0.100493 62.8195 0.0880266 62.78 0.0832709C62.7405 0.0785152 62.7005 0.0815636 62.6622 0.092241C62.6239 0.102918 62.5881 0.121014 62.5568 0.145489C62.5256 0.169964 62.4995 0.200336 62.4801 0.234859L61.0021 2.77274C59.8282 2.23933 58.552 1.96536 57.2614 1.96971C55.9692 1.96656 54.6913 2.23776 53.513 2.76516L52.035 0.227284C51.9954 0.158374 51.93 0.107868 51.853 0.0868095C51.776 0.0657512 51.6938 0.0758549 51.6243 0.114911C51.5549 0.153967 51.5037 0.218797 51.4822 0.295223C51.4606 0.371649 51.4704 0.45345 51.5093 0.522738L52.9645 3.03031C51.7063 3.71265 50.6391 4.69625 49.8596 5.89206C49.0801 7.08787 48.6128 8.45814 48.5 9.8788H65.9999C65.8906 8.45914 65.4255 7.08932 64.647 5.89436C63.8684 4.6994 62.8013 3.71736 61.543 3.03789Z" fill="#575757"/>
</g>
<defs>
<clipPath id="clip0">
<rect width="66" height="10" fill="white"/>
</clipPath>
</defs>
</svg>
