<svg width="67" height="14" viewBox="0 0 67 14" fill="none" xmlns="http://www.w3.org/2000/svg">
<path d="M26.7725 10.926H25.4631L24.7458 8.78588H22.2528L21.5695 10.926H20.2947L22.7648 3.64008H24.2903L26.7725 10.926ZM24.5296 7.88801L23.881 5.9855C23.8124 5.79115 23.6838 5.33345 23.4941 4.61296H23.471C23.3955 4.92284 23.2739 5.38054 23.1067 5.9855L22.4696 7.88801H24.5296Z" fill="#575757"/>
<path d="M33.1245 8.23457C33.1245 9.12806 32.8702 9.83431 32.3617 10.3528C31.9062 10.8143 31.3406 11.0448 30.6655 11.0448C29.9367 11.0448 29.4132 10.7962 29.0943 10.2991H29.0712V13.0667H27.842V7.40184C27.842 6.84013 27.8264 6.26363 27.7965 5.67234H28.8775L28.9461 6.50507H28.9692C29.3791 5.87765 30.0012 5.56449 30.8361 5.56449C31.4888 5.56449 32.0336 5.80921 32.4695 6.29921C32.9066 6.78976 33.1245 7.43469 33.1245 8.23457ZM31.8722 8.27727C31.8722 7.76592 31.7511 7.34436 31.5078 7.01258C31.242 6.66657 30.8851 6.49357 30.4377 6.49357C30.1344 6.49357 29.8588 6.58993 29.6126 6.7799C29.3659 6.97152 29.2044 7.22172 29.1289 7.5316C29.0908 7.67613 29.0718 7.79439 29.0718 7.88746V8.76344C29.0718 9.14558 29.1952 9.46805 29.442 9.73139C29.6888 9.99473 30.0093 10.1261 30.4037 10.1261C30.8667 10.1261 31.227 9.9564 31.4848 9.61806C31.7431 9.27917 31.8722 8.83242 31.8722 8.27727Z" fill="#575757"/>
<path d="M39.4881 8.23457C39.4881 9.12806 39.2338 9.83431 38.7247 10.3528C38.2698 10.8143 37.7042 11.0448 37.029 11.0448C36.3002 11.0448 35.7767 10.7962 35.4585 10.2991H35.4354V13.0667H34.2062V7.40184C34.2062 6.84013 34.1906 6.26363 34.1606 5.67234H35.2417L35.3103 6.50507H35.3333C35.7427 5.87765 36.3648 5.56449 37.2003 5.56449C37.8524 5.56449 38.3972 5.80921 38.8343 6.29921C39.2696 6.78976 39.4881 7.43469 39.4881 8.23457ZM38.2358 8.27727C38.2358 7.76592 38.1141 7.34436 37.8708 7.01258C37.605 6.66657 37.2493 6.49357 36.8013 6.49357C36.4974 6.49357 36.2224 6.58993 35.9756 6.7799C35.7289 6.97152 35.568 7.22172 35.4925 7.5316C35.455 7.67613 35.4354 7.79439 35.4354 7.88746V8.76344C35.4354 9.14558 35.5588 9.46805 35.8044 9.73139C36.0512 9.99418 36.3717 10.1261 36.7673 10.1261C37.2303 10.1261 37.5906 9.9564 37.8483 9.61806C38.1066 9.27917 38.2358 8.83242 38.2358 8.27727Z" fill="#575757"/>
<path d="M46.6029 8.88279C46.6029 9.50254 46.3763 10.0068 45.9214 10.396C45.4215 10.8214 44.7256 11.0339 43.8314 11.0339C43.0057 11.0339 42.3438 10.8827 41.8428 10.58L42.1276 9.60711C42.6673 9.91698 43.2594 10.0725 43.9046 10.0725C44.3676 10.0725 44.7279 9.97283 44.9868 9.77464C45.2445 9.57645 45.3731 9.31037 45.3731 8.9786C45.3731 8.68296 45.267 8.43385 45.0543 8.23183C44.8427 8.02981 44.4892 7.84202 43.9957 7.66847C42.6523 7.19271 41.9812 6.49576 41.9812 5.57927C41.9812 4.98033 42.2164 4.48923 42.6875 4.10709C43.1568 3.7244 43.7829 3.53333 44.5659 3.53333C45.2641 3.53333 45.8442 3.64884 46.3071 3.87933L45.9998 4.83086C45.5674 4.60749 45.0785 4.4958 44.5313 4.4958C44.0989 4.4958 43.761 4.59709 43.5189 4.79856C43.3142 4.97868 43.2116 5.19822 43.2116 5.45828C43.2116 5.74625 43.3286 5.98441 43.5638 6.17165C43.7685 6.34465 44.1404 6.53189 44.6801 6.73391C45.3403 6.9863 45.8251 7.2814 46.1371 7.61974C46.4478 7.95699 46.6029 8.3791 46.6029 8.88279Z" fill="#575757"/>
<path d="M50.6671 6.54832H49.3122V9.09904C49.3122 9.74781 49.5509 10.0719 50.0295 10.0719C50.2491 10.0719 50.4313 10.0539 50.5755 10.0177L50.6095 10.9041C50.3673 10.9901 50.0485 11.0333 49.6535 11.0333C49.1681 11.0333 48.7887 10.8926 48.5148 10.6117C48.2421 10.3303 48.1049 9.8584 48.1049 9.1954V6.54722H47.2977V5.67125H48.1049V4.70932L49.3122 4.36331V5.67125H50.6671V6.54832Z" fill="#575757"/>
<path d="M56.7805 8.25592C56.7805 9.06346 56.5372 9.72646 56.0517 10.2449C55.5426 10.7787 54.8669 11.0448 54.0245 11.0448C53.2127 11.0448 52.5664 10.7891 52.0844 10.2778C51.6023 9.76643 51.3613 9.12094 51.3613 8.34297C51.3613 7.52886 51.6093 6.86203 52.1068 6.34356C52.6033 5.82454 53.2732 5.56504 54.1156 5.56504C54.9274 5.56504 55.5807 5.82071 56.0736 6.33261C56.5453 6.82918 56.7805 7.47028 56.7805 8.25592ZM55.5051 8.2937C55.5051 7.80917 55.3962 7.39363 55.1753 7.04708C54.9176 6.6277 54.5492 6.41856 54.0718 6.41856C53.5777 6.41856 53.2023 6.62825 52.9446 7.04708C52.7238 7.39418 52.6148 7.81629 52.6148 8.31559C52.6148 8.80012 52.7238 9.21566 52.9446 9.56167C53.2104 9.98104 53.5817 10.1902 54.0608 10.1902C54.5302 10.1902 54.8986 9.97666 55.1644 9.55072C55.391 9.19759 55.5051 8.77767 55.5051 8.2937Z" fill="#575757"/>
<path d="M60.7761 6.69888C60.6545 6.67752 60.5247 6.66657 60.3886 6.66657C59.9562 6.66657 59.6218 6.82151 59.3866 7.13194C59.1819 7.40568 59.0793 7.75169 59.0793 8.16942V10.926H57.8506L57.8621 7.32684C57.8621 6.72132 57.8466 6.17001 57.816 5.67289H58.8867L58.9317 6.67807H58.9657C59.0954 6.33261 59.3001 6.05449 59.5803 5.8459C59.8542 5.65811 60.15 5.56449 60.4688 5.56449C60.5824 5.56449 60.685 5.57215 60.7761 5.58584V6.69888Z" fill="#575757"/>
<path d="M66.2737 8.05061C66.2737 8.25975 66.2593 8.43604 66.2287 8.58003H62.541C62.5554 9.09904 62.7336 9.49597 63.076 9.76971C63.3868 10.0144 63.7887 10.1371 64.2822 10.1371C64.8282 10.1371 65.3264 10.0544 65.7744 9.88852L65.9669 10.6988C65.4434 10.9156 64.8253 11.0234 64.1121 11.0234C63.2542 11.0234 62.5808 10.7837 62.0907 10.3046C61.6018 9.82556 61.3567 9.18226 61.3567 8.37527C61.3567 7.58306 61.5845 6.92334 62.0405 6.39721C62.5179 5.83549 63.1631 5.55464 63.9749 5.55464C64.7723 5.55464 65.376 5.83549 65.7859 6.39721C66.1105 6.84341 66.2737 7.39528 66.2737 8.05061ZM65.1015 7.74785C65.1096 7.40184 65.0294 7.10292 64.8628 6.85053C64.6501 6.52587 64.3232 6.36382 63.8832 6.36382C63.4814 6.36382 63.1545 6.52204 62.9048 6.83958C62.7001 7.09197 62.5785 7.39473 62.541 7.74731L65.1015 7.74785Z" fill="#575757"/>
<path d="M9.70432 6.98003C9.6895 5.33767 11.0534 4.53866 11.1157 4.50146C10.3433 3.37887 9.14609 3.22549 8.72537 3.21326C7.71984 3.10778 6.74447 3.81303 6.23225 3.81303C5.7098 3.81303 4.92102 3.22345 4.07089 3.24078C2.97692 3.2576 1.9535 3.88896 1.3922 4.86937C0.233822 6.86843 1.09775 9.80612 2.20757 11.422C2.76273 12.2133 3.41144 13.0969 4.26055 13.0659C5.09125 13.0317 5.40155 12.5379 6.40401 12.5379C7.39727 12.5379 7.68866 13.0659 8.55463 13.046C9.44617 13.0317 10.0075 12.251 10.5432 11.4525C11.1848 10.5455 11.4424 9.65223 11.4526 9.60637C11.4317 9.59923 9.72119 8.94851 9.70432 6.98003Z" fill="#575757"/>
<path d="M8.06848 2.15029C8.51527 1.59333 8.82097 0.835596 8.73611 0.0666504C8.08944 0.0951865 7.28072 0.512527 6.81502 1.05726C6.40299 1.53728 6.03492 2.32406 6.13001 3.06396C6.85642 3.11797 7.60227 2.69859 8.06848 2.15029Z" fill="#575757"/>
</svg>
