<svg width="12" height="12" viewBox="0 0 12 12" fill="none" xmlns="http://www.w3.org/2000/svg">
<g clip-path="url(#clip0)">
<path fill-rule="evenodd" clip-rule="evenodd" d="M11 4.7H1C0.834315 4.7 0.7 4.83431 0.7 5L0.7 11C0.7 11.1657 0.834315 11.3 1 11.3H11C11.1657 11.3 11.3 11.1657 11.3 11V5C11.3 4.83431 11.1657 4.7 11 4.7ZM1 4C0.447715 4 0 4.44772 0 5L0 11C0 11.5523 0.447715 12 1 12H11C11.5523 12 12 11.5523 12 11V5C12 4.44772 11.5523 4 11 4H1Z" fill="#0A9F30"/>
<path fill-rule="evenodd" clip-rule="evenodd" d="M5.64999 11.5V4.5H6.34999V11.5H5.64999Z" fill="#0A9F30"/>
<path fill-rule="evenodd" clip-rule="evenodd" d="M12 8.34998L0 8.34998L-1.78488e-08 7.64998L12 7.64998L12 8.34998Z" fill="#0A9F30"/>
<path fill-rule="evenodd" clip-rule="evenodd" d="M9.24413 0.045054C9.77555 0.170099 10.1841 0.554312 10.3395 1.17589C10.4145 1.476 10.4067 1.75798 10.3194 2.01664C10.2329 2.27304 10.0759 2.4844 9.88598 2.65799C9.51486 2.99719 8.98625 3.22064 8.47615 3.38416C8.06474 3.51604 7.6308 3.6189 7.25645 3.70765C7.16239 3.72995 7.07209 3.75135 6.98685 3.7721C6.76926 3.82508 6.58797 3.87285 6.44843 3.92054C6.29857 3.97176 6.25049 4.00603 6.24753 4.00813C6.24743 4.00821 6.24753 4.00814 6.24753 4.00813L5.6499 4.60571V3.76075C5.6499 2.11898 6.60762 0.881623 7.6477 0.326918C8.1652 0.0509164 8.7379 -0.074067 9.24413 0.045054ZM6.3957 3.20355C6.52723 3.16513 6.67181 3.12835 6.82127 3.09197C6.91449 3.06927 7.01036 3.04653 7.1081 3.02334C7.48033 2.93502 7.87965 2.84028 8.26247 2.71757C8.7505 2.56113 9.15845 2.37461 9.41373 2.14129C9.537 2.02862 9.61561 1.91309 9.65616 1.79289C9.69595 1.67494 9.70659 1.53063 9.66035 1.34566C9.56574 0.967213 9.34926 0.788909 9.0838 0.726444C8.79316 0.658055 8.3971 0.720567 7.97711 0.944565C7.26077 1.32661 6.57583 2.1263 6.3957 3.20355Z" fill="#0A9F30"/>
<path fill-rule="evenodd" clip-rule="evenodd" d="M2.78953 0.0452341C2.26081 0.170854 1.85626 0.556104 1.70132 1.1759C1.62646 1.47534 1.63341 1.75665 1.71899 2.01488C1.80388 2.27103 1.95882 2.48257 2.14685 2.65655C2.51418 2.99643 3.03799 3.22021 3.54324 3.38384C3.95146 3.51604 4.38224 3.6191 4.75365 3.70795C4.84615 3.73008 4.93497 3.75133 5.01883 3.77192C5.23451 3.8249 5.41419 3.87263 5.5526 3.92028C5.62138 3.94396 5.67311 3.96532 5.71023 3.98405C5.74233 4.00025 5.75389 4.00972 5.75416 4.00977C5.75416 4.00977 5.75416 4.00977 5.75416 4.00977L6.3501 4.6057V3.76073C6.3501 2.12106 5.40466 0.883342 4.37409 0.327669C3.86146 0.0512638 3.29302 -0.0743907 2.78953 0.0452341ZM5.60477 3.20281C5.47505 3.16471 5.33274 3.12822 5.18579 3.09213C5.09399 3.06958 4.99964 3.04699 4.90348 3.02397C4.53413 2.93553 4.13823 2.84073 3.75891 2.71789C3.27623 2.56157 2.87367 2.37538 2.62225 2.14275C2.5009 2.03046 2.42337 1.91511 2.38345 1.79466C2.34422 1.67629 2.33401 1.53131 2.38042 1.34567C2.47547 0.965439 2.69083 0.78817 2.95134 0.726276C3.23708 0.658386 3.6272 0.720222 4.04187 0.943811C4.74888 1.32502 5.42654 2.12432 5.60477 3.20281Z" fill="#0A9F30"/>
</g>
<defs>
<clipPath id="clip0">
<rect width="12" height="12" fill="white"/>
</clipPath>
</defs>
</svg>
