<svg width="14" height="15" viewBox="0 0 14 15" fill="none" xmlns="http://www.w3.org/2000/svg">
<path d="M7 0.0471191C3.14038 0.0471191 0 3.18749 0 7.04712C0 10.9067 3.14038 14.0471 7 14.0471C10.8596 14.0471 14 10.9067 14 7.04712C14 3.18749 10.8596 0.0471191 7 0.0471191ZM7 13.1721C3.6225 13.1721 0.875 10.4251 0.875 7.04712C0.875 3.66962 3.6225 0.922119 7 0.922119C10.3779 0.922119 13.125 3.66962 13.125 7.04712C13.125 10.4251 10.3779 13.1721 7 13.1721ZM8.14319 7.67756C8.24863 7.49074 8.3125 7.27681 8.3125 7.04712C8.3125 6.47749 7.94544 5.99668 7.4375 5.81556V2.23462C7.4375 1.99312 7.24194 1.79712 7 1.79712C6.75806 1.79712 6.5625 1.99312 6.5625 2.23462V5.81556C6.05456 5.99668 5.6875 6.47793 5.6875 7.04712C5.6875 7.77074 6.27637 8.35962 7 8.35962C7.17325 8.35962 7.33819 8.32418 7.49044 8.26206L9.31569 10.0873C9.401 10.1726 9.513 10.2155 9.625 10.2155C9.737 10.2155 9.849 10.1726 9.93431 10.0873C10.1054 9.91624 10.1054 9.64018 9.93431 9.46912L8.14319 7.67756ZM7 7.48462C6.7585 7.48462 6.5625 7.28862 6.5625 7.04712C6.5625 6.80606 6.7585 6.60962 7 6.60962C7.2415 6.60962 7.4375 6.80606 7.4375 7.04712C7.4375 7.28862 7.2415 7.48462 7 7.48462Z" fill="#129A48"/>
</svg>
