<svg width="168" height="35" viewBox="0 0 168 35" fill="none" xmlns="http://www.w3.org/2000/svg">
<path d="M13.2668 15.5973L13.9185 19.4027H19.8769L21.9717 15.8792L20.0631 25.1812H27.9301L33.2369 0H24.9509L18.7597 10.0067L16.8511 0H8.6583L3.35156 25.1812H11.2186L13.2668 15.5973Z" fill="#404041"/>
<path d="M53.3931 25.1812H54.4172H56.931H63.1687L67.8703 19.4027L70.7098 25.1812H79.1354L73.0374 12.9664L83.7905 0H74.0149L69.4995 5.49664L66.7531 0H58.3275L64.2393 11.9329L56.5585 21.3289L53.3931 25.1812Z" fill="#404041"/>
<path d="M38.1247 25.1812L40.7781 19.4027H44.6883L44.9676 25.1812H50.4606H52.9743L52.5553 21.3758L50.2278 0H43.2918L29.9319 25.1812H38.1247ZM42.7332 14.8926L44.4556 11.1342L44.5952 14.8926H42.7332Z" fill="#404041"/>
<path d="M89.2369 27.906L93.054 9.81873H85.1405L79.8337 34.9999H97.6625L99.1521 27.906H89.2369Z" fill="#0A9F30"/>
<path d="M105.669 9.81873L100.362 34.9999H108.229L113.536 9.81873H105.669Z" fill="#0A9F30"/>
<path d="M129.782 9.81873L127.548 20.5301L122.288 9.81873H116.236L110.929 34.9999H118.843L121.077 24.4295L126.291 34.9999H132.389L137.696 9.81873H129.782Z" fill="#0A9F30"/>
<path d="M156.037 16.9127L157.526 9.81873H140.349L135.042 34.9999H152.266L153.756 27.906H144.446L144.958 25.557H151.568L152.964 18.8858H146.354L146.773 16.9127H156.037Z" fill="#0A9F30"/>
<path d="M2.74647 27.906L0 35H77.0873L78.5769 27.906H2.74647Z" fill="#0A9F30"/>
<path d="M85.6991 7.09396L87.1887 0H161.111L158.131 7.09396H85.6991Z" fill="#404041"/>
<path d="M162.973 3.52348C162.973 2.81879 163.205 2.20805 163.717 1.73825C164.229 1.26845 164.788 0.986572 165.486 0.986572C166.184 0.986572 166.79 1.22147 167.255 1.73825C167.767 2.25503 168 2.81879 168 3.52348C168 4.22818 167.767 4.83892 167.255 5.30872C166.743 5.8255 166.184 6.0604 165.486 6.0604C164.788 6.0604 164.183 5.8255 163.717 5.30872C163.252 4.79194 162.973 4.22818 162.973 3.52348ZM165.486 5.87248C166.138 5.87248 166.65 5.63758 167.116 5.16778C167.581 4.69798 167.814 4.1812 167.814 3.52348C167.814 2.86577 167.534 2.34899 167.116 1.87919C166.65 1.40939 166.138 1.17449 165.486 1.17449C164.835 1.17449 164.322 1.40939 163.857 1.87919C163.391 2.34899 163.205 2.86577 163.205 3.52348C163.205 4.1812 163.438 4.69798 163.857 5.16778C164.322 5.63758 164.835 5.87248 165.486 5.87248ZM166.51 3.10067C166.51 3.47651 166.371 3.7114 166.091 3.85234L166.65 4.83892H166.045L165.579 3.9463H165.533H165.207V4.83892H164.648V2.25503H165.533C165.812 2.25503 166.091 2.34899 166.231 2.48993C166.417 2.63087 166.51 2.86577 166.51 3.10067ZM165.533 2.77181H165.207V3.47651H165.533C165.672 3.47651 165.766 3.42953 165.859 3.38255C165.952 3.33557 165.998 3.24161 165.998 3.10067C165.952 2.86577 165.812 2.77181 165.533 2.77181Z" fill="#404041"/>
</svg>
