<svg width="12" height="12" viewBox="0 0 12 12" fill="none" xmlns="http://www.w3.org/2000/svg">
<path d="M11.8953 11.388L8.97913 8.47184C9.76139 7.57251 10.235 6.39911 10.235 5.11663C10.235 2.29357 7.93877 0 5.11837 0C2.29531 0 0.0017395 2.29623 0.0017395 5.11663C0.0017395 7.93703 2.29797 10.2333 5.11837 10.2333C6.40085 10.2333 7.57425 9.75965 8.47358 8.97738L11.3898 11.8936C11.4589 11.9627 11.5521 12 11.6425 12C11.733 12 11.8261 11.9654 11.8953 11.8936C12.0337 11.7552 12.0337 11.5264 11.8953 11.388ZM0.717482 5.11663C0.717482 2.69002 2.69176 0.718404 5.11571 0.718404C7.54232 0.718404 9.51394 2.69268 9.51394 5.11663C9.51394 7.54058 7.54232 9.51752 5.11571 9.51752C2.69176 9.51752 0.717482 7.54324 0.717482 5.11663Z" fill="#222222"/>
</svg>
