<svg width="16" height="16" viewBox="0 0 16 16" fill="none" xmlns="http://www.w3.org/2000/svg">
<g opacity="0.7" clip-path="url(#clip0)">
<path d="M7.67657 0.1935L3.37207 7.8545C2.92857 8.634 2.66757 9.567 2.66757 10.561C2.66757 11.555 2.92857 12.488 3.38657 13.295L3.37207 13.2675C4.28757 14.9085 6.01257 16 7.99307 16C8.97207 16 9.88907 15.733 10.6746 15.268L10.6501 15.2815C12.2681 14.3035 13.3326 12.554 13.3326 10.556C13.3326 9.563 13.0696 8.631 12.6091 7.827L12.6231 7.854L8.32157 0.193C8.25857 0.077 8.13757 0 7.99857 0C7.85957 0 7.73857 0.077 7.67657 0.191L7.67557 0.193L7.67657 0.1935Z" fill="#0C97E6"/>
</g>
<defs>
<clipPath id="clip0">
<rect width="16" height="16" fill="white"/>
</clipPath>
</defs>
</svg>
