<svg width="16" height="16" viewBox="0 0 16 16" fill="none" xmlns="http://www.w3.org/2000/svg">
<g clip-path="url(#clip0)">
<path d="M14.8597 11.5577L15.2715 8.48914C14.8597 8.64899 14.3158 8.79321 13.6521 8.91658C12.1022 9.20675 10.0466 9.36661 7.86248 9.36661C5.67835 9.36661 3.62106 9.20675 2.07289 8.91658C1.41261 8.79321 0.872225 8.65073 0.462158 8.49263L0.882651 11.556C0.900026 11.6498 0.967792 11.7818 1.04077 11.8444C1.59506 12.3101 2.7905 12.8696 5.13449 13.118V10.5812C5.13449 10.3414 5.3291 10.1468 5.56888 10.1468H10.1526C10.3924 10.1468 10.587 10.3414 10.587 10.5812V13.1233C12.9414 12.8817 14.1282 12.3309 14.6998 11.8444C14.7745 11.7836 14.8423 11.6515 14.8597 11.5577Z" fill="#129A48"/>
<path d="M15.612 5.96777C15.5616 5.99384 15.5078 6.0199 15.4504 6.04423C15.023 6.23362 14.4183 6.40218 13.652 6.54638C12.1021 6.83656 10.0466 6.9964 7.86244 6.9964C5.67832 6.9964 3.62103 6.83656 2.07285 6.54638C1.30658 6.40217 0.701908 6.23362 0.274465 6.04423C0.218863 6.01992 0.164998 5.99384 0.114609 5.96777L0.37872 7.88779C0.411734 7.90341 0.446485 7.92079 0.486449 7.93816C0.87219 8.10845 1.45254 8.27006 2.16842 8.40383C3.68706 8.6888 5.70959 8.84518 7.86244 8.84518C10.0153 8.84518 12.0378 8.6888 13.5565 8.40383C14.2723 8.27006 14.8544 8.10845 15.2384 7.93816C15.2801 7.91905 15.3184 7.90167 15.3531 7.8843L15.612 5.96777Z" fill="#51BF7D"/>
<path d="M0.486522 5.56818C0.872264 5.73846 1.45261 5.90005 2.1685 6.03385C2.18587 6.0234 2.20499 6.01472 2.22757 6.00952C3.49427 5.71413 5.59326 5.53864 7.84169 5.53864C10.1197 5.53864 12.2343 5.71761 13.4975 6.01995C13.5131 6.0234 13.5288 6.03037 13.5427 6.03732C13.5479 6.03732 13.5514 6.03557 13.5566 6.03557C14.2725 5.90177 14.8546 5.74018 15.2386 5.5699C15.5513 5.43089 15.6712 5.31447 15.7077 5.25366C15.7181 5.23628 15.7216 5.22412 15.7216 5.21543C15.7216 5.17721 15.6347 5.03646 15.2386 4.86097C15.0683 4.78625 14.8598 4.71154 14.6183 4.64203V4.37097V4.09991V3.76282L15.9388 2.97744C16.0205 2.92879 16.0205 2.84886 15.9388 2.80021L14.4653 1.9349C14.4323 1.921 14.3958 1.91231 14.3576 1.91231C14.2134 1.91231 14.097 2.02873 14.097 2.17294V3.97133V4.23892V4.5065C13.9267 4.46654 13.746 4.43005 13.5566 4.39356C12.104 4.12076 10.1926 3.96612 8.14404 3.95222V3.69158V3.43095V3.17031L9.4646 2.38493C9.54627 2.33628 9.54627 2.25635 9.4646 2.2077L7.9894 1.34412C7.9564 1.33022 7.91989 1.32153 7.88167 1.32153C7.73745 1.32153 7.62103 1.43795 7.62103 1.58217V3.43095V3.69158V3.95222C5.55854 3.96264 3.62808 4.11902 2.16679 4.39356C1.9913 4.42658 1.82623 4.46133 1.66811 4.49608V4.22849V3.96091V3.75935L2.98867 2.97396C3.07033 2.92531 3.07033 2.84538 2.98867 2.79673L1.51346 1.93316C1.48045 1.91926 1.44396 1.91057 1.40573 1.91057C1.26152 1.91057 1.1451 2.02699 1.1451 2.17121V4.08601V4.35533V4.6264C0.886199 4.69937 0.662052 4.77757 0.483081 4.85749C0.0868789 5.03302 0 5.17377 0 5.21198C0 5.22066 0.00347515 5.23283 0.0139006 5.2502C0.0538649 5.31449 0.173758 5.42917 0.486522 5.56818Z" fill="#129A48"/>
<path d="M12.3923 6.21456C11.1742 6.03559 9.55829 5.93481 7.84333 5.93481C6.1405 5.93481 4.52978 6.03559 3.31174 6.21283C4.63924 6.38484 6.21348 6.47694 7.86244 6.47694C9.50444 6.4752 11.0683 6.38486 12.3923 6.21456Z" fill="#51BF7D"/>
<path d="M5.65765 10.6697V13.1683V13.6687L5.39701 13.7556L5.13638 13.8425L4.80278 13.952C4.71243 13.9815 4.63771 14.084 4.63771 14.1796V14.5045C4.63771 14.6001 4.7159 14.6783 4.81147 14.6783H10.9121C11.0076 14.6783 11.0858 14.6001 11.0858 14.5045V14.1796C11.0858 14.084 11.0111 13.9815 10.9208 13.952L10.5871 13.8425L10.3265 13.7556L10.0659 13.6687V13.1718V10.6697H9.42992V12.9094H6.2936V10.6697H5.65765Z" fill="#51BF7D"/>
</g>
<defs>
<clipPath id="clip0">
<rect width="16" height="16" fill="white"/>
</clipPath>
</defs>
</svg>
