<svg width="16" height="16" viewBox="0 0 16 16" fill="none" xmlns="http://www.w3.org/2000/svg">
<path d="M7.85631 2.90613C7.43855 2.90613 7.03159 2.95728 6.64155 3.05354C4.81121 3.50543 3.356 4.95585 2.92781 6.82674C1.26975 7.09656 0 8.5387 0 10.2718C0 12.1963 1.56573 13.7621 3.49028 13.7621H7.85631V2.90613Z" fill="#BDDBFF"/>
<path d="M12.7849 6.82678C12.2654 4.55723 10.2348 2.90613 7.85638 2.90613V13.7621H12.2224C14.147 13.7621 15.7127 12.1963 15.7127 10.2718C15.7127 9.60757 15.526 8.9862 15.2026 8.45706C14.6822 7.6056 13.8075 6.99317 12.7849 6.82678Z" fill="#9BC9FF"/>
<path d="M15.0648 5.63279C14.9823 5.24246 14.8282 4.87826 14.6169 4.55458L15.2792 3.89229L14.3457 2.95889L13.6834 3.62118C13.3598 3.40988 12.9956 3.25576 12.6052 3.17326V2.23792H11.2852V3.17409C10.9469 3.24583 10.6215 3.37213 10.3234 3.54792C11.5264 4.22071 12.4321 5.37268 12.7695 6.76265L12.8411 6.83664C13.5754 6.96857 14.2307 7.33086 14.7293 7.84584C14.8848 7.56665 14.9977 7.26568 15.0639 6.9528H16.0001V5.63276H15.0648V5.63279Z" fill="#FFCD00"/>
</svg>
