<svg width="16" height="16" viewBox="0 0 16 16" fill="none" xmlns="http://www.w3.org/2000/svg">
<g opacity="0.7" clip-path="url(#clip0)">
<path d="M9.02749 9.65251H2.58499V10.6395H9.02899C9.75449 10.66 10.335 11.253 10.335 11.982C10.335 11.993 10.335 12.004 10.3345 12.015V12.0135C10.3345 12.022 10.3345 12.0315 10.3345 12.0415C10.3345 12.691 9.81649 13.2195 9.17099 13.2365H9.16949C8.59599 13.218 8.13799 12.7485 8.13799 12.172C8.13799 12.1645 8.13799 12.1575 8.13799 12.15V12.151H7.19949C7.19899 12.1655 7.19899 12.1825 7.19899 12.1995C7.19899 13.298 8.07399 14.1925 9.16549 14.2235H9.16849C10.3355 14.1905 11.269 13.237 11.269 12.0645C11.269 12.0465 11.269 12.0285 11.2685 12.0105V12.013C11.269 11.997 11.269 11.978 11.269 11.959C11.269 10.7075 10.2725 9.68851 9.02949 9.65201H9.02599L9.02749 9.65251ZM12.822 1.77551C11.1775 1.82201 9.86249 3.16601 9.86249 4.81701C9.86249 4.84351 9.86299 4.87001 9.86349 4.89651V4.89251H10.801C10.8005 4.87701 10.8005 4.85851 10.8005 4.84001C10.8005 3.71201 11.699 2.79401 12.8195 2.76201H12.8225C14.0675 2.79951 15.0625 3.81801 15.0625 5.06901C15.0625 5.08701 15.0625 5.10451 15.062 5.12251V5.12001C15.0625 5.13851 15.0625 5.15951 15.0625 5.18151C15.0625 6.56351 13.962 7.68901 12.589 7.72801H0.000488281V8.71501H12.5845C14.482 8.66151 16.0005 7.11051 16.0005 5.20451C16.0005 5.17501 16 5.14551 15.9995 5.11651V5.12101C16 5.09751 16.0005 5.06951 16.0005 5.04151C16.0005 3.26851 14.5885 1.82551 12.827 1.77551H12.8225H12.822ZM7.37099 2.94851C6.44699 2.97501 5.70799 3.73051 5.70799 4.65801C5.70799 4.67201 5.70799 4.68651 5.70849 4.70051V4.69851H6.64599C6.64599 4.69351 6.64599 4.68751 6.64599 4.68151C6.64599 4.27651 6.96849 3.94701 7.37049 3.93551H7.37149C7.83299 3.94901 8.20149 4.32601 8.20149 4.78901C8.20149 4.79601 8.20149 4.80301 8.20149 4.81001V4.80901C8.20149 4.81601 8.20149 4.82401 8.20149 4.83251C8.20149 5.35901 7.78199 5.78801 7.25899 5.80301H2.58499V6.78951H7.25749C8.30299 6.75951 9.13899 5.90501 9.13899 4.85501C9.13899 4.83901 9.13899 4.82301 9.13849 4.80651V4.80901C9.13849 4.79601 9.13899 4.78101 9.13899 4.76551C9.13899 3.77901 8.35349 2.97601 7.37399 2.94851H7.37149H7.37099Z" fill="#989898"/>
</g>
<defs>
<clipPath id="clip0">
<rect width="16" height="16" fill="white"/>
</clipPath>
</defs>
</svg>
