<svg width="14" height="14" viewBox="0 0 14 14" fill="none" xmlns="http://www.w3.org/2000/svg">
<path d="M8.28341 11.5209H5.71674L6.15422 10.5875L6.5334 9.71252H7.46674L7.84592 10.5875L8.28341 11.5209Z" fill="#FF7058"/>
<path d="M9.91666 11.5209H4.08333C3.7625 11.5209 3.5 11.7834 3.5 12.1042V14H10.4708V12.1042C10.5 11.7834 10.2375 11.5209 9.91666 11.5209Z" fill="#FFD15C"/>
<path d="M7.84591 10.5875C7.61259 10.7042 7.37926 10.8208 7.14591 10.9084L7.00009 10.9375L6.85424 10.8792C6.62092 10.7917 6.38759 10.675 6.15424 10.5583L6.53341 9.68335H7.43757L7.84591 10.5875Z" fill="#F1543F"/>
<path d="M0 1.60413V2.79996C0 5.71663 1.80834 8.22495 4.34583 9.27497C5.16249 9.62497 6.06666 9.79996 7 9.79996C7.93334 9.79996 8.83751 9.62497 9.65417 9.27497C12.1917 8.22498 14 5.71663 14 2.79999V1.60413H0ZM12.8333 2.79996C12.8333 4.19996 12.3375 5.4833 11.4916 6.50412C10.4125 7.78744 8.80831 8.63329 7 8.63329C5.19169 8.63329 3.58751 7.81663 2.50835 6.50412C1.69169 5.51244 1.16669 4.19996 1.16669 2.79996V2.77079H12.8041V2.79996H12.8333Z" fill="#F8B64C"/>
<path d="M11.55 0H2.44998C2.24582 0 2.09998 0.174989 2.09998 0.350006C2.09998 0.554164 2.24579 0.729181 2.44998 0.729181H11.55C11.7541 0.729181 11.9 0.554192 11.9 0.379175C11.9 0.174989 11.7541 0 11.55 0Z" fill="#F8B64C"/>
<path d="M11.55 0.729248V3.87924C11.55 6.79591 9.74165 9.45008 7 10.5001C4.25835 9.42091 2.45001 6.79591 2.45001 3.85007V0.729248H11.55Z" fill="#FFD15C"/>
<path d="M6.99998 2.04163L7.61245 3.90828H9.56664L7.99163 5.07494L8.57496 6.94162L6.99998 5.77495L5.42497 6.94162L6.0083 5.07494L4.43329 3.90828H6.38747L6.99998 2.04163Z" fill="white"/>
<path d="M11.5208 0.729248H2.45001V1.16673H11.5208V0.729248Z" fill="#FFC952"/>
</svg>
