<svg width="14" height="14" viewBox="0 0 14 14" fill="none" xmlns="http://www.w3.org/2000/svg">
<path d="M13.7038 6.32849C13.0171 3.18138 12.0488 2.40549 11.4593 2.09433C10.5151 1.59601 9.42042 1.88598 9.05727 2.07393C8.64494 2.2863 8.36659 2.69063 7.94744 2.8662C7.46309 3.06817 6.80439 3.12296 6.30888 2.87901C5.91414 2.68425 5.56579 2.2683 5.08746 2.08434C4.48114 1.85037 3.4713 1.52242 2.47145 2.23911C2.23508 2.40869 0.549353 3.82206 0.0430242 8.23736C-0.269319 10.9598 1.22325 11.8356 1.16846 11.7961C1.5524 12.0712 2.41227 12.5364 3.57731 11.8077C4.35599 11.321 4.98788 10.3595 4.98788 10.3595C4.98788 10.3595 5.26944 9.82479 5.64338 9.59759C5.90815 9.43643 6.30408 9.55882 6.30408 9.55882H7.70509C7.70509 9.55882 8.14982 9.50284 8.46218 9.6408C8.76533 9.77319 8.93649 10.0999 8.93649 10.0999C8.93649 10.0999 9.85995 11.2933 10.745 11.9016C11.1218 12.16 12.636 12.4576 13.4178 11.5025C13.9285 10.8774 14.2769 8.9557 13.7038 6.32849ZM6.2193 6.04975C6.2193 6.28891 6.02932 6.48249 5.79496 6.48249H4.73353V7.56592C4.73353 7.8055 4.54355 7.99944 4.30919 7.99944H3.99083C3.75647 7.99944 3.56651 7.80589 3.56651 7.56592V6.48249H2.50465C2.27028 6.48249 2.0803 6.2893 2.0803 6.04975V5.72501C2.0803 5.48543 2.27028 5.29147 2.50465 5.29147H3.56607V4.20923C3.56607 3.97006 3.75606 3.77569 3.99042 3.77569H4.30878C4.54314 3.77569 4.73312 3.96965 4.73312 4.20923V5.29186H5.79455C6.02891 5.29186 6.21889 5.48543 6.21889 5.7254V6.04975H6.2193ZM9.20885 7.56551C8.76931 7.56551 8.41298 7.20236 8.41298 6.75324C8.41298 6.3049 8.76931 5.94137 9.20885 5.94137C9.64838 5.94137 10.0047 6.30452 10.0047 6.75324C10.0051 7.20236 9.64835 7.56551 9.20885 7.56551ZM10.6682 5.76138C10.2335 5.76138 9.88113 5.40185 9.88113 4.9579C9.88113 4.51516 10.2335 4.15563 10.6682 4.15563C11.1029 4.15563 11.4553 4.51519 11.4553 4.9579C11.4553 5.40185 11.1029 5.76138 10.6682 5.76138Z" fill="#0A9F30"/>
</svg>
