<svg width="14" height="14" viewBox="0 0 14 14" fill="none" xmlns="http://www.w3.org/2000/svg">
<path d="M7 0C3.14038 0 0 3.14038 0 7C0 10.8596 3.14038 14 7 14C10.8596 14 14 10.8596 14 7C14 3.14038 10.8596 0 7 0ZM7.4445 2.27413L9.24437 1.30638C10.241 1.701 11.1108 2.34763 11.7723 3.17013L11.3435 5.14937L9.97062 5.82225L7.4445 3.98213V2.27413ZM4.7705 1.30113L6.57037 2.27237V3.98213L4.046 5.82225L2.66612 5.1485L2.23738 3.157C2.90062 2.33625 3.77213 1.69313 4.7705 1.30113ZM1.95125 10.4598C1.37988 9.6285 1.008 8.65112 0.905625 7.595L2.387 5.98588L3.738 6.6465L4.75562 9.53662L3.8955 10.5674L1.95125 10.4598ZM8.56013 12.9159C8.0605 13.048 7.53988 13.125 7 13.125C6.34725 13.125 5.719 13.02 5.12838 12.8301L4.578 11.1169L5.45563 10.0625H8.54788L9.40975 11.0828L8.56013 12.9159ZM10.0923 10.5376L9.24613 9.53575L10.2778 6.6465L11.6226 5.98763L13.0952 7.59587C13.0069 8.50675 12.7137 9.35637 12.2684 10.108L10.0923 10.5376Z" fill="#0A9F30"/>
</svg>
