<svg width="14" height="14" viewBox="0 0 14 14" fill="none" xmlns="http://www.w3.org/2000/svg">
<g clip-path="url(#clip0)">
<path d="M12.8057 1.19737C11.0993 -0.508983 8.18364 -0.368974 6.3084 1.50714C5.39222 2.42245 4.85931 3.60727 4.8068 4.84285L4.64054 8.74297L3.10395 10.2796C2.61829 10.0617 2.01013 10.1361 1.62248 10.5237L0.385151 11.761C-0.126756 12.2729 -0.126756 13.1051 0.385151 13.617C0.640667 13.8725 0.976688 14.0003 1.31358 14.0003C1.65048 14.0003 1.98563 13.8725 2.24202 13.617L3.47935 12.3797C3.88187 11.9772 3.95625 11.3821 3.72611 10.8956L5.25921 9.36251L9.15933 9.19712H9.1602C10.394 9.14462 11.5789 8.61171 12.4959 7.69553C14.372 5.81679 14.5112 2.90285 12.8057 1.19737ZM11.4695 1.29713C11.7267 1.43801 11.9726 1.60165 12.187 1.81691C12.4014 2.03043 12.5659 2.27632 12.7068 2.53358L11.8772 3.36313L10.6399 2.12581L11.4695 1.29713ZM9.09282 3.67203L10.0213 2.7436L11.2586 3.98092L10.3302 4.90936L9.09282 3.67203ZM9.71149 5.52802L8.78305 6.45645L7.54573 5.21912L8.47416 4.29069L9.71149 5.52802ZM9.84012 0.876229C10.0878 0.876229 10.331 0.90773 10.5699 0.957609L10.0213 1.50627L9.43234 0.917356C9.56885 0.903355 9.70536 0.876229 9.84012 0.876229ZM8.43128 1.15362L9.40259 2.12493L8.47416 3.05336L7.26658 1.84579C7.62973 1.54915 8.01913 1.31201 8.43128 1.15362ZM6.64529 2.46183L7.85549 3.67203L6.92706 4.60046L5.9575 3.6309C6.11851 3.21262 6.3504 2.8206 6.64529 2.46183ZM5.68098 4.8796C5.68448 4.79385 5.70723 4.71159 5.71686 4.62671L6.3084 5.21825L5.76411 5.76341C5.70461 5.47814 5.66786 5.18587 5.68098 4.8796ZM5.52785 8.47345L5.57073 7.47239C5.70198 7.65703 5.83674 7.83991 5.9995 8.00267C6.16051 8.16456 6.3399 8.30107 6.52279 8.43145L5.52785 8.47345ZM7.33571 7.90379C7.07582 7.76116 6.82906 7.59577 6.61817 7.38401C6.40553 7.17225 6.24014 6.92548 6.09751 6.66646L6.92619 5.83779L8.16352 7.07512L7.33571 7.90379ZM9.1217 8.32119C8.81893 8.33607 8.52491 8.29932 8.23877 8.23894L8.78305 7.69465L9.37459 8.28619C9.28971 8.29494 9.20746 8.31769 9.1217 8.32119ZM10.3713 8.04468L9.40172 7.07512L10.3302 6.14668L11.5404 7.35688C11.1807 7.65178 10.7887 7.88367 10.3713 8.04468ZM12.159 6.73734L10.9488 5.52802L11.8772 4.59959L12.8451 5.5674C12.6867 5.98042 12.4565 6.37332 12.159 6.73734ZM12.4959 3.98092L13.0367 3.44014C13.1128 3.80854 13.1321 4.18919 13.0892 4.57421L12.4959 3.98092Z" fill="#0A9F30"/>
<path d="M1.75225 3.50022C2.7188 3.50022 3.50236 2.71667 3.50236 1.75011C3.50236 0.783551 2.7188 0 1.75225 0C0.785687 0 0.00213623 0.783551 0.00213623 1.75011C0.00213623 2.71667 0.785687 3.50022 1.75225 3.50022Z" fill="#0A9F30"/>
</g>
<defs>
<clipPath id="clip0">
<rect width="14" height="14" fill="white"/>
</clipPath>
</defs>
</svg>
