<svg width="17" height="16" viewBox="0 0 17 16" fill="none" xmlns="http://www.w3.org/2000/svg">
<g clip-path="url(#clip0)">
<path d="M7.94019 0C3.51993 0 -0.0765991 3.589 -0.0765991 8C-0.0765991 12.411 3.51993 16 7.94019 16C12.3604 16 15.957 12.411 15.957 8C15.957 3.589 12.3604 0 7.94019 0ZM8.44925 2.599L10.5106 1.493C11.652 1.944 12.648 2.683 13.4056 3.623L12.9146 5.885L11.3423 6.654L8.44925 4.551V2.599ZM5.38684 1.487L7.44816 2.597V4.551L4.5571 6.654L2.97679 5.884L2.48577 3.608C3.24536 2.67 4.24345 1.935 5.38684 1.487ZM2.15808 11.954C1.50371 11.004 1.07782 9.887 0.960572 8.68L2.65712 6.841L4.20436 7.596L5.3698 10.899L4.38474 12.077L2.15808 11.954ZM9.72693 14.761C9.15473 14.912 8.55848 15 7.94019 15C7.19262 15 6.47311 14.88 5.7967 14.663L5.16638 12.705L6.17148 11.5H9.7129L10.7 12.666L9.72693 14.761ZM11.4816 12.043L10.5126 10.898L11.694 7.596L13.2343 6.843L14.9208 8.681C14.8196 9.722 14.4839 10.693 13.9738 11.552L11.4816 12.043Z" fill="white"/>
</g>
<defs>
<clipPath id="clip0">
<rect width="16.0336" height="16" fill="white" transform="translate(0.0101929)"/>
</clipPath>
</defs>
</svg>
