<svg width="12" height="12" viewBox="0 0 12 12" fill="none" xmlns="http://www.w3.org/2000/svg">
<path d="M10.9219 2.6355H9.32812V1.03125C9.32812 0.462 8.84437 0 8.25 0H1.07812C0.48375 0 0 0.462 0 1.03125V8.23913C0 8.538 0.117 8.82 0.330375 9.03375C0.54375 9.24675 0.826125 9.36413 1.12538 9.36413C1.42575 9.36413 1.70813 9.24713 1.91588 9.03975L2.71875 8.26462C2.84888 8.694 3.25912 9.01125 3.75 9.01125H6.94687C7.19662 9.01125 7.4325 9.10875 7.614 9.28988L10.0781 11.6707C10.2911 11.883 10.5739 12 10.8742 12C11.1735 12 11.4559 11.8834 11.67 11.6689C11.883 11.4559 12 11.1739 12 10.875V3.66675C12 3.09862 11.5162 2.6355 10.9219 2.6355ZM1.3905 8.50425C1.24762 8.64713 1.00463 8.64713 0.860625 8.5035C0.788625 8.43075 0.75 8.33925 0.75 8.23913V1.03125C0.75 0.875625 0.897375 0.75 1.07812 0.75H8.25C8.43075 0.75 8.57812 0.876 8.57812 1.03125V5.34375C8.57812 5.499 8.43075 5.625 8.25 5.625H5.05313C4.60275 5.625 4.17863 5.8005 3.86475 6.11512L1.3905 8.50425ZM11.25 10.875C11.25 10.9755 11.211 11.067 11.1401 11.1386C10.9943 11.2837 10.7572 11.2867 10.6046 11.1349L8.14013 8.75513C7.82138 8.43525 7.39762 8.26087 6.94687 8.26087H3.75C3.56925 8.26087 3.42188 8.13412 3.42188 7.97962V7.58475L4.39012 6.6495C4.5675 6.4725 4.803 6.375 5.05313 6.375H8.25C8.84437 6.375 9.32812 5.91262 9.32812 5.34375V3.3855H10.9219C11.1026 3.3855 11.25 3.5115 11.25 3.66675V10.875ZM4.6875 4.5C4.998 4.5 5.25 4.248 5.25 3.9375C5.25 3.627 4.998 3.375 4.6875 3.375C4.377 3.375 4.125 3.62663 4.125 3.9375C4.125 4.24837 4.377 4.5 4.6875 4.5ZM2.4375 3.375C2.127 3.375 1.875 3.62663 1.875 3.9375C1.875 4.24837 2.127 4.5 2.4375 4.5C2.748 4.5 3 4.248 3 3.9375C3 3.627 2.748 3.375 2.4375 3.375ZM6.9375 4.5C7.248 4.5 7.5 4.248 7.5 3.9375C7.5 3.627 7.248 3.375 6.9375 3.375C6.627 3.375 6.375 3.62663 6.375 3.9375C6.375 4.24837 6.627 4.5 6.9375 4.5Z" fill="#404041"/>
</svg>
