<svg width="16" height="16" viewBox="0 0 16 16" fill="none" xmlns="http://www.w3.org/2000/svg">
<path d="M8.27974 1L7 3.04965L7.42658 4.8227L8.27974 5.28369C9.79943 5.28369 11.0361 6.62012 11.0361 8.26241L11.8893 9.89362L13.5628 10L15 8.26241C15 4.27349 11.9709 1 8.27974 1Z" fill="#0A9C2F"/>
<path d="M13 12.9301C11.7292 14.1934 9.97177 15 8.04101 15C4.17123 15 1 11.8472 1 8C1 4.15276 4.17123 1 8.04101 1V5.12891C6.44858 5.12891 5.1531 6.41684 5.1531 8C5.1531 9.58316 6.44858 10.8711 8.04101 10.8711C8.83315 10.8711 9.55921 10.5512 10.079 10.0261L11.5478 10.2887L12.868 11.6094L13 12.9301Z" fill="#4BB174"/>
<path d="M13 12.9192C11.7187 14.1891 9.94673 15 8 15V10.8494C8.79869 10.8494 9.53075 10.5278 10.0548 10L11.5358 10.2639L12.8669 11.5916L13 12.9192Z" fill="#9CD3A8"/>
<path d="M10.8468 8C10.8468 8.80301 10.5229 9.53124 10 10.0588L12.916 13C14.1859 11.719 15 9.95041 15 8H10.8468Z" fill="#9CD3A8"/>
</svg>
