<svg width="16" height="16" viewBox="0 0 16 16" fill="none" xmlns="http://www.w3.org/2000/svg">
<g opacity="0.7">
<path d="M8.00919 6.77349C8.00169 6.77399 7.99269 6.77399 7.98419 6.77399C7.30419 6.77399 6.75269 6.22249 6.75269 5.54249C6.75269 4.86249 7.30419 4.31099 7.98419 4.31099C8.09119 4.31099 8.19519 4.32449 8.29419 4.35049L8.28569 4.34899C8.99769 3.79249 9.92619 3.06599 10.0327 2.99049C10.1022 2.92299 10.1967 2.88099 10.3012 2.88099C10.5132 2.88099 10.6852 3.05299 10.6852 3.26499C10.6852 3.37249 10.6407 3.46999 10.5697 3.53949C10.5217 3.59549 9.77019 4.53699 9.19869 5.26099C9.21969 5.34249 9.23269 5.43649 9.23419 5.53299V5.53399C9.23419 5.53599 9.23419 5.53849 9.23419 5.54099C9.23419 6.21899 8.68669 6.76899 8.00969 6.77399H8.00919V6.77349ZM0.00268555 12.9245C0.00268555 12.585 0.278186 12.31 0.617186 12.31H6.15469V10.7565C3.98619 9.97349 2.46419 7.93299 2.46419 5.53699C2.46419 2.47949 4.94269 0.000488281 8.00069 0.000488281C11.0587 0.000488281 13.5372 2.47899 13.5372 5.53699C13.5372 7.93299 12.0152 9.97349 9.88519 10.7445L9.84669 10.7565V12.31H15.3832C15.7227 12.31 15.9982 12.5855 15.9982 12.925C15.9982 13.2645 15.7227 13.54 15.3832 13.54H0.618186C0.278686 13.54 0.00368555 13.2645 0.00368555 12.9255C0.00368555 12.925 0.00368555 12.9245 0.00368555 12.9245H0.00268555ZM8.00019 9.23299C10.0387 9.23299 11.6912 7.58049 11.6912 5.54199C11.6912 3.50349 10.0387 1.85099 8.00019 1.85099C5.96169 1.85099 4.30919 3.50349 4.30919 5.54199C4.31119 7.57999 5.96269 9.23099 8.00019 9.23299H8.00069H8.00019ZM15.3827 14.7695H0.617686C0.278186 14.7695 0.00268555 15.045 0.00268555 15.3845C0.00268555 15.724 0.278186 15.9995 0.617686 15.9995H15.3827C15.7222 15.9995 15.9977 15.724 15.9977 15.3845C15.9977 15.045 15.7222 14.7695 15.3827 14.7695Z" fill="#FF6464"/>
</g>
</svg>
