<svg width="17" height="16" viewBox="0 0 17 16" fill="none" xmlns="http://www.w3.org/2000/svg">
<g clip-path="url(#clip0)">
<path d="M4.38654 8.00891H1.31124C1.07368 8.00891 0.881104 8.20123 0.881104 8.43848V15.5702C0.881104 15.8075 1.07368 15.9998 1.31124 15.9998H4.38654C4.6241 15.9998 4.81667 15.8075 4.81667 15.5702V8.43848C4.81667 8.20127 4.6241 8.00891 4.38654 8.00891Z" fill="#51BF7D"/>
<path d="M9.54816 0H6.47286C6.2353 0 6.04272 0.192319 6.04272 0.429571V15.5704C6.04272 15.8076 6.2353 16 6.47286 16H9.54816C9.78572 16 9.97829 15.8076 9.97829 15.5704V0.429571C9.97829 0.192319 9.78576 0 9.54816 0Z" fill="#51BF7D"/>
<path d="M14.7098 4.95105H11.6345C11.3969 4.95105 11.2043 5.14337 11.2043 5.38062V15.5704C11.2043 15.8075 11.3969 15.9999 11.6345 15.9999H14.7098C14.9473 15.9999 15.1399 15.8075 15.1399 15.5704V5.38062C15.1399 5.14337 14.9474 4.95105 14.7098 4.95105Z" fill="#51BF7D"/>
</g>
<defs>
<clipPath id="clip0">
<rect width="16.021" height="16" fill="white"/>
</clipPath>
</defs>
</svg>
