<svg width="16" height="16" viewBox="0 0 16 16" fill="none" xmlns="http://www.w3.org/2000/svg">
<g clip-path="url(#clip0)">
<path d="M7.42853 1.71423H8.5714V3.99995H7.42853V1.71423Z" fill="#9CD3A8"/>
<path d="M6.28568 1.14282H9.71425V2.28568H6.28568V1.14282Z" fill="#129A48"/>
<path d="M11.0226 4.73865L12.1653 3.59593L12.9733 4.40393L11.8306 5.54665L11.0226 4.73865Z" fill="#9CD3A8"/>
<path d="M3.0239 4.40405L3.8319 3.59605L4.97461 4.73877L4.16662 5.54677L3.0239 4.40405Z" fill="#9CD3A8"/>
<path d="M7.99997 14.857C6.86979 14.857 5.76499 14.5219 4.82528 13.894C3.88557 13.2661 3.15316 12.3737 2.72066 11.3295C2.28816 10.2854 2.175 9.13642 2.39548 8.02795C2.61597 6.91949 3.1602 5.9013 3.95936 5.10215C4.75852 4.30299 5.77671 3.75875 6.88517 3.53827C7.99363 3.31778 9.14258 3.43094 10.1867 3.86344C11.2309 4.29594 12.1233 5.02836 12.7512 5.96807C13.3791 6.90778 13.7143 8.01258 13.7143 9.14276C13.7126 10.6578 13.11 12.1102 12.0387 13.1815C10.9674 14.2528 9.51497 14.8553 7.99997 14.857ZM7.99997 4.57133C7.09583 4.57133 6.21199 4.83944 5.46022 5.34175C4.70845 5.84407 4.12252 6.55803 3.77652 7.39335C3.43052 8.22867 3.33999 9.14783 3.51638 10.0346C3.69277 10.9214 4.12816 11.7359 4.76748 12.3752C5.40681 13.0146 6.22136 13.45 7.10813 13.6263C7.9949 13.8027 8.91406 13.7122 9.74938 13.3662C10.5847 13.0202 11.2987 12.4343 11.801 11.6825C12.3033 10.9307 12.5714 10.0469 12.5714 9.14276C12.57 7.93076 12.088 6.76878 11.231 5.91177C10.3739 5.05476 9.21197 4.57269 7.99997 4.57133Z" fill="#129A48"/>
<path d="M7.99997 5.71423V9.1428H4.5714C4.5714 9.82091 4.77248 10.4838 5.14921 11.0476C5.52595 11.6114 6.06142 12.0509 6.68791 12.3104C7.3144 12.5699 8.00377 12.6378 8.66885 12.5055C9.33393 12.3732 9.94484 12.0467 10.4243 11.5672C10.9038 11.0877 11.2304 10.4768 11.3627 9.81169C11.495 9.14661 11.4271 8.45724 11.1676 7.83075C10.9081 7.20426 10.4686 6.66879 9.90478 6.29205C9.34095 5.91532 8.67807 5.71423 7.99997 5.71423Z" fill="#9CD3A8"/>
</g>
<defs>
<clipPath id="clip0">
<rect width="13.7143" height="13.7143" fill="white" transform="translate(1.14286 1.14282)"/>
</clipPath>
</defs>
</svg>
