<svg width="16" height="16" viewBox="0 0 16 16" fill="none" xmlns="http://www.w3.org/2000/svg">
<path d="M14.5898 3.79104H8.98842L10.6106 2.16468C10.7706 2.00431 10.7702 1.74463 10.6099 1.58464C10.4495 1.42462 10.1898 1.42495 10.0298 1.58538L8 3.62041L5.97019 1.58541C5.8102 1.42501 5.55049 1.42468 5.39015 1.58467C5.22978 1.74466 5.22945 2.00434 5.38941 2.16471L7.0116 3.79106H1.41016C1.18364 3.79106 1 3.9747 1 4.20122V12.6995C1 12.9261 1.18364 13.1097 1.41016 13.1097H2.09375V13.4232C2.09375 13.6497 2.27739 13.8333 2.50391 13.8333H13.4961C13.7226 13.8333 13.9062 13.6497 13.9062 13.4232V13.1096H14.5898C14.8164 13.1096 15 12.926 15 12.6995V4.20119C15 3.97468 14.8164 3.79104 14.5898 3.79104ZM10.8984 11.3288C10.8984 11.5553 10.7148 11.739 10.4883 11.739H2.77734C2.55083 11.739 2.36719 11.5553 2.36719 11.3288V5.57191C2.36719 5.34539 2.55083 5.16175 2.77734 5.16175H10.4883C10.7148 5.16175 10.8984 5.34539 10.8984 5.57191V11.3288ZM12.5391 8.85936C12.237 8.85936 11.9922 8.61453 11.9922 8.31249C11.9922 8.01045 12.237 7.76561 12.5391 7.76561C12.8411 7.76561 13.0859 8.01045 13.0859 8.31249C13.0859 8.61453 12.8411 8.85936 12.5391 8.85936ZM12.5391 6.67186C12.237 6.67186 11.9922 6.42703 11.9922 6.12499C11.9922 5.82295 12.237 5.57811 12.5391 5.57811C12.8411 5.57811 13.0859 5.82295 13.0859 6.12499C13.0859 6.42703 12.8411 6.67186 12.5391 6.67186Z" fill="#338AF3"/>
</svg>
